<svg xmlns="http://www.w3.org/2000/svg" viewBox="0 0 1200 1200">
    <title>
        LOOΠΔ Orbit2.0
    </title>
	<defs>
		<style>
			g > * {
				fill: white;
			}
		</style>
	</defs>
    <g id="Scalable">
        <path d="M374.59,574.3a11.09,11.09,0,1,0,11.09,11.09A11.1,11.1,0,0,0,374.59,574.3Z"/>
        <path d="M624.47,795.48a11.09,11.09,0,1,0,11.09,11.09A11.1,11.1,0,0,0,624.47,795.48Z"/>
        <path d="M795.76,461.36a11.09,11.09,0,1,0,11.09,11.09A11.1,11.1,0,0,0,795.76,461.36Z"/>
        <path d="M373.51,562.83a1.32,1.32,0,0,1-.34,0,1.39,1.39,0,0,1-.33-.1,1.73,1.73,0,0,1-.3-.16,1.13,1.13,0,0,1-.27-.22,1.71,1.71,0,0,1-.21-.26,1.46,1.46,0,0,1-.16-.3,1.39,1.39,0,0,1-.1-.33,1.32,1.32,0,0,1,0-.34,1.78,1.78,0,0,1,.51-1.24,1.44,1.44,0,0,1,.27-.22,1.73,1.73,0,0,1,.3-.16,2.07,2.07,0,0,1,.33-.1,1.56,1.56,0,0,1,.68,0,1.59,1.59,0,0,1,.33.1,1.78,1.78,0,0,1,.57.38,1.76,1.76,0,0,1,.51,1.24,2,2,0,0,1,0,.34c0,.11-.06.22-.1.33s-.1.2-.16.3a2.75,2.75,0,0,1-.22.26A1.77,1.77,0,0,1,373.51,562.83Z"/>
        <path d="M374.85,548.8a1.75,1.75,0,0,1-1.48-2h0a1.75,1.75,0,0,1,2-1.48h0a1.75,1.75,0,0,1,1.49,2h0a1.76,1.76,0,0,1-1.73,1.5h0Zm2.35-13.9a1.75,1.75,0,0,1-1.36-2.07h0a1.75,1.75,0,0,1,2.07-1.35h0a1.75,1.75,0,0,1,1.36,2.07h0a1.74,1.74,0,0,1-1.71,1.39h0A1.47,1.47,0,0,1,377.2,534.9Zm3.2-13.72a1.74,1.74,0,0,1-1.22-2.15h0a1.74,1.74,0,0,1,2.15-1.22h0a1.74,1.74,0,0,1,1.22,2.15h0a1.75,1.75,0,0,1-1.69,1.29h0A1.47,1.47,0,0,1,380.4,521.18Zm4.05-13.51a1.75,1.75,0,0,1-1.08-2.23h0a1.74,1.74,0,0,1,2.22-1.08h0a1.75,1.75,0,0,1,1.09,2.22h0a1.75,1.75,0,0,1-1.66,1.18h0A1.88,1.88,0,0,1,384.45,507.67Zm4.89-13.24a1.76,1.76,0,0,1-.95-2.29h0a1.74,1.74,0,0,1,2.28-.95h0a1.74,1.74,0,0,1,.95,2.28h0a1.74,1.74,0,0,1-1.62,1.08h0A1.77,1.77,0,0,1,389.34,494.43Zm5.7-12.9a1.75,1.75,0,0,1-.8-2.34h0a1.75,1.75,0,0,1,2.34-.81h0a1.77,1.77,0,0,1,.81,2.35h0a1.76,1.76,0,0,1-1.58,1h0A1.77,1.77,0,0,1,395,481.53ZM401.53,469a1.76,1.76,0,0,1-.66-2.39h0a1.75,1.75,0,0,1,2.39-.66h0a1.75,1.75,0,0,1,.66,2.39h0a1.76,1.76,0,0,1-1.53.88h0A1.78,1.78,0,0,1,401.53,469Zm7.25-12.1a1.75,1.75,0,0,1-.51-2.42h0a1.75,1.75,0,0,1,2.42-.51h0a1.75,1.75,0,0,1,.51,2.42h0a1.74,1.74,0,0,1-1.47.79h0A1.75,1.75,0,0,1,408.78,456.91Zm8-11.62a1.75,1.75,0,0,1-.36-2.45h0a1.74,1.74,0,0,1,2.45-.36h0a1.76,1.76,0,0,1,.36,2.45h0a1.77,1.77,0,0,1-1.41.71h0A1.76,1.76,0,0,1,416.76,445.29Zm8.68-11.11a1.76,1.76,0,0,1-.21-2.47h0a1.74,1.74,0,0,1,2.46-.2h0a1.74,1.74,0,0,1,.21,2.46h0a1.74,1.74,0,0,1-1.34.62h0A1.71,1.71,0,0,1,425.44,434.18Zm9.34-10.55a1.75,1.75,0,0,1-.06-2.48h0a1.75,1.75,0,0,1,2.48,0h0a1.74,1.74,0,0,1,.05,2.47h0a1.73,1.73,0,0,1-1.26.54h0A1.75,1.75,0,0,1,434.78,423.63Zm10-10a1.75,1.75,0,0,1,.09-2.48h0a1.76,1.76,0,0,1,2.48.1h0a1.75,1.75,0,0,1-.1,2.47h0a1.76,1.76,0,0,1-1.19.47h0A1.74,1.74,0,0,1,444.75,413.67Zm10.56-9.33a1.75,1.75,0,0,1,.24-2.46h0a1.76,1.76,0,0,1,2.47.24h0a1.75,1.75,0,0,1-.25,2.46h0a1.74,1.74,0,0,1-1.11.4h0A1.73,1.73,0,0,1,455.31,404.34Zm11.11-8.66a1.75,1.75,0,0,1,.4-2.45h0a1.77,1.77,0,0,1,2.45.4h0a1.76,1.76,0,0,1-.4,2.45h0a1.76,1.76,0,0,1-1,.32h0A1.75,1.75,0,0,1,466.42,395.68Zm11.62-8a1.76,1.76,0,0,1,.54-2.42h0a1.75,1.75,0,0,1,2.41.55h0a1.75,1.75,0,0,1-.55,2.41h0a1.67,1.67,0,0,1-.93.27h0A1.73,1.73,0,0,1,478,387.72Zm12.08-7.23a1.76,1.76,0,0,1,.7-2.38h0a1.75,1.75,0,0,1,2.37.7h0a1.73,1.73,0,0,1-.69,2.37h0a1.73,1.73,0,0,1-.84.22h0A1.76,1.76,0,0,1,490.12,380.49ZM502.63,374a1.75,1.75,0,0,1,.84-2.33h0a1.76,1.76,0,0,1,2.33.84h0a1.76,1.76,0,0,1-.84,2.33h0a1.71,1.71,0,0,1-.75.17h0A1.75,1.75,0,0,1,502.63,374Zm192.08-.29h0a1.75,1.75,0,0,1-.87-2.32h0a1.75,1.75,0,0,1,2.32-.87h0a1.75,1.75,0,0,1,.87,2.32h0a1.75,1.75,0,0,1-1.59,1h0A1.87,1.87,0,0,1,694.71,373.73Zm-179.2-5.39a1.74,1.74,0,0,1,1-2.27h0a1.76,1.76,0,0,1,2.27,1h0a1.75,1.75,0,0,1-1,2.28h0a1.81,1.81,0,0,1-.64.12h0A1.75,1.75,0,0,1,515.51,368.34Zm166.3,0h0a1.74,1.74,0,0,1-1-2.26h0a1.74,1.74,0,0,1,2.25-1h0a1.75,1.75,0,0,1,1,2.26h0a1.76,1.76,0,0,1-1.64,1.12h0A1.66,1.66,0,0,1,681.81,368.34Zm-153.1-4.87a1.74,1.74,0,0,1,1.12-2.2h0a1.75,1.75,0,0,1,2.21,1.12h0a1.76,1.76,0,0,1-1.13,2.21h0a1.68,1.68,0,0,1-.54.08h0A1.75,1.75,0,0,1,528.71,363.47Zm139.88.29h0a1.75,1.75,0,0,1-1.15-2.19h0a1.75,1.75,0,0,1,2.19-1.15h0a1.75,1.75,0,0,1,1.15,2.19h0a1.74,1.74,0,0,1-1.67,1.23h0A1.57,1.57,0,0,1,668.59,363.76Zm-126.38-4.33a1.75,1.75,0,0,1,1.26-2.13h0a1.75,1.75,0,0,1,2.13,1.26h0a1.76,1.76,0,0,1-1.26,2.13h0a1.7,1.7,0,0,1-.44.05h0A1.74,1.74,0,0,1,542.21,359.43Zm112.9.59a1.76,1.76,0,0,1-1.28-2.12h0a1.75,1.75,0,0,1,2.12-1.28h0a1.75,1.75,0,0,1,1.28,2.11h0a1.76,1.76,0,0,1-1.7,1.34h0A2.18,2.18,0,0,1,655.11,360Zm-99.18-3.79a1.76,1.76,0,0,1,1.39-2.05h0a1.75,1.75,0,0,1,2,1.39h0a1.74,1.74,0,0,1-1.38,2.05h0a2,2,0,0,1-.34,0h0A1.74,1.74,0,0,1,555.93,356.23Zm85.5.89a1.76,1.76,0,0,1-1.41-2h0a1.75,1.75,0,0,1,2-1.41h0a1.74,1.74,0,0,1,1.41,2h0a1.73,1.73,0,0,1-1.71,1.44h0Zm-71.61-3.23a1.76,1.76,0,0,1,1.52-2h0a1.75,1.75,0,0,1,1.95,1.52h0a1.74,1.74,0,0,1-1.51,1.95h0l-.22,0h0A1.76,1.76,0,0,1,569.82,353.89Zm57.78,1.18a1.75,1.75,0,0,1-1.54-1.94h0a1.75,1.75,0,0,1,1.94-1.54h0a1.75,1.75,0,0,1,1.54,1.94h0a1.76,1.76,0,0,1-1.74,1.55h-.2Zm-43.76-2.66a1.75,1.75,0,0,1,1.62-1.86h0a1.76,1.76,0,0,1,1.87,1.63h0A1.75,1.75,0,0,1,585.7,354h-.12A1.75,1.75,0,0,1,583.84,352.41Zm29.82,1.46A1.73,1.73,0,0,1,612,352h0a1.75,1.75,0,0,1,1.84-1.65h0a1.75,1.75,0,0,1,1.65,1.84h0a1.75,1.75,0,0,1-1.74,1.66h-.1Zm-15.75-2.08a1.76,1.76,0,0,1,1.74-1.76h0a1.75,1.75,0,0,1,1.76,1.74h0a1.74,1.74,0,0,1-1.74,1.76h0A1.75,1.75,0,0,1,597.91,351.79Z"/>
        <path d="M708.17,380.16a1.77,1.77,0,0,1-1.24-.52,2.75,2.75,0,0,1-.22-.26c-.06-.1-.11-.2-.16-.3s-.07-.22-.1-.33a2,2,0,0,1,0-.34,1.76,1.76,0,0,1,.51-1.24,1.82,1.82,0,0,1,2.48,0,1.76,1.76,0,0,1,.51,1.24,2,2,0,0,1,0,.34c0,.11-.06.22-.1.33a2.28,2.28,0,0,1-.17.3,1.71,1.71,0,0,1-.21.26A1.77,1.77,0,0,1,708.17,380.16Z"/>
        <path d="M600,810.2a1.27,1.27,0,0,1-.34,0,1.59,1.59,0,0,1-.33-.09,1.78,1.78,0,0,1-.3-.17l-.27-.21a2,2,0,0,1-.38-.57,1.7,1.7,0,0,1-.13-.67,1.87,1.87,0,0,1,0-.34,2.58,2.58,0,0,1,.1-.33,2.11,2.11,0,0,1,.16-.3A1.72,1.72,0,0,1,599,807a2.85,2.85,0,0,1,.3-.16l.33-.1a1.75,1.75,0,0,1,2.09,1.72,1.7,1.7,0,0,1-.13.67,2,2,0,0,1-.38.57A1.74,1.74,0,0,1,600,810.2Z"/>
        <path d="M586.19,809.73h0a1.75,1.75,0,0,1-1.64-1.86h0a1.76,1.76,0,0,1,1.86-1.64h0a1.76,1.76,0,0,1,1.64,1.86h0a1.75,1.75,0,0,1-1.75,1.64h-.11Zm-13.75-1.29a1.75,1.75,0,0,1-1.52-2h0a1.75,1.75,0,0,1,2-1.53h0a1.74,1.74,0,0,1,1.52,1.95h0a1.75,1.75,0,0,1-1.73,1.53h-.22Zm-13.64-2.12a1.73,1.73,0,0,1-1.4-2h0a1.74,1.74,0,0,1,2-1.4h0a1.76,1.76,0,0,1,1.4,2h0a1.74,1.74,0,0,1-1.72,1.42h0A1.12,1.12,0,0,1,558.8,806.32Zm-13.5-2.92h0a1.76,1.76,0,0,1-1.28-2.12h0a1.75,1.75,0,0,1,2.12-1.28h0a1.75,1.75,0,0,1,1.28,2.12h0a1.76,1.76,0,0,1-1.7,1.33h0A2.1,2.1,0,0,1,545.3,803.4ZM532,799.66h0a1.75,1.75,0,0,1-1.14-2.19h0a1.74,1.74,0,0,1,2.19-1.15h0a1.75,1.75,0,0,1,1.15,2.19h0a1.76,1.76,0,0,1-1.67,1.23h0A2,2,0,0,1,532,799.66Zm-13-4.54a1.75,1.75,0,0,1-1-2.26h0a1.76,1.76,0,0,1,2.26-1h0a1.76,1.76,0,0,1,1,2.26h0a1.76,1.76,0,0,1-1.64,1.13h0A1.75,1.75,0,0,1,519,795.12Zm-12.74-5.31a1.75,1.75,0,0,1-.87-2.32h0a1.74,1.74,0,0,1,2.31-.87h0a1.75,1.75,0,0,1,.87,2.32h0a1.75,1.75,0,0,1-1.59,1h0A1.82,1.82,0,0,1,506.23,789.81Zm-12.4-6.08h0a1.74,1.74,0,0,1-.73-2.36h0a1.74,1.74,0,0,1,2.36-.73h0a1.74,1.74,0,0,1,.73,2.36h0a1.74,1.74,0,0,1-1.55.94h0A1.72,1.72,0,0,1,493.83,783.73Zm-12-6.8h0a1.75,1.75,0,0,1-.59-2.41h0a1.75,1.75,0,0,1,2.4-.58h0a1.74,1.74,0,0,1,.59,2.4h0a1.74,1.74,0,0,1-1.49.84h0A1.76,1.76,0,0,1,481.82,776.93Zm-11.58-7.52a1.73,1.73,0,0,1-.44-2.43h0a1.74,1.74,0,0,1,2.43-.45h0a1.76,1.76,0,0,1,.44,2.44h0a1.74,1.74,0,0,1-1.44.75h0A1.73,1.73,0,0,1,470.24,769.41Zm-11.11-8.19h0a1.75,1.75,0,0,1-.3-2.45h0a1.75,1.75,0,0,1,2.46-.29h0a1.76,1.76,0,0,1,.3,2.46h0a1.76,1.76,0,0,1-1.38.67h0A1.74,1.74,0,0,1,459.13,761.22Zm-10.6-8.85h0a1.75,1.75,0,0,1-.15-2.47h0a1.75,1.75,0,0,1,2.47-.15h0a1.75,1.75,0,0,1,.15,2.47h0a1.75,1.75,0,0,1-1.31.58h0A1.7,1.7,0,0,1,448.53,752.37Zm-10.06-9.45h0a1.75,1.75,0,0,1,0-2.48h0a1.75,1.75,0,0,1,2.48,0h0a1.75,1.75,0,0,1,0,2.47h0a1.72,1.72,0,0,1-1.24.52h0A1.77,1.77,0,0,1,438.47,742.92Zm-9.47-10a1.75,1.75,0,0,1,.15-2.47h0a1.74,1.74,0,0,1,2.47.15h0a1.74,1.74,0,0,1-.15,2.47h0a1.7,1.7,0,0,1-1.16.44h0A1.76,1.76,0,0,1,429,732.87Zm-8.85-10.58a1.75,1.75,0,0,1,.29-2.46h0a1.75,1.75,0,0,1,2.46.29h0a1.75,1.75,0,0,1-.3,2.46h0a1.74,1.74,0,0,1-1.08.37h0A1.76,1.76,0,0,1,420.15,722.29Z"/>
        <path d="M413.37,711.93a1.75,1.75,0,0,1-1.24-.52,1.72,1.72,0,0,1-.51-1.23,2.07,2.07,0,0,1,0-.35,1.7,1.7,0,0,1,.1-.32,1.82,1.82,0,0,1,.16-.31,2.75,2.75,0,0,1,.22-.26,1.81,1.81,0,0,1,2.47,0,1.78,1.78,0,0,1,.22.26,1.82,1.82,0,0,1,.16.31,1.19,1.19,0,0,1,.1.32,1.39,1.39,0,0,1,0,.35,1.75,1.75,0,0,1-.14.67,1.51,1.51,0,0,1-.38.56A1.74,1.74,0,0,1,413.37,711.93Z"/>
        <path d="M811.07,492.08a1.75,1.75,0,0,1-1.24-3,1.77,1.77,0,0,1,1.58-.48,2.07,2.07,0,0,1,.33.1,2.11,2.11,0,0,1,.3.16,2,2,0,0,1,.27.22,1.76,1.76,0,0,1,0,2.48,1.39,1.39,0,0,1-.27.21,1.08,1.08,0,0,1-.3.16,1.39,1.39,0,0,1-.33.1A1.32,1.32,0,0,1,811.07,492.08Z"/>
        <path d="M660.26,800.71a1.75,1.75,0,0,1,1.23-2.15h0a1.75,1.75,0,0,1,2.15,1.23h0a1.76,1.76,0,0,1-1.22,2.15h0a2,2,0,0,1-.47.06h0A1.76,1.76,0,0,1,660.26,800.71Zm13.32-4a1.74,1.74,0,0,1,1.08-2.22h0a1.76,1.76,0,0,1,2.23,1.09h0a1.76,1.76,0,0,1-1.09,2.22h0a1.9,1.9,0,0,1-.57.1h0A1.73,1.73,0,0,1,673.58,796.7Zm13-4.81a1.73,1.73,0,0,1,.94-2.28h0a1.75,1.75,0,0,1,2.29.95h0a1.75,1.75,0,0,1-1,2.28h0a1.79,1.79,0,0,1-.67.14h0A1.74,1.74,0,0,1,686.61,791.89Zm12.7-5.59a1.75,1.75,0,0,1,.82-2.34h0a1.74,1.74,0,0,1,2.33.8h0a1.74,1.74,0,0,1-.8,2.34h0a1.64,1.64,0,0,1-.77.18h0A1.76,1.76,0,0,1,699.31,786.3Zm12.36-6.37a1.74,1.74,0,0,1,.66-2.38h0a1.75,1.75,0,0,1,2.39.66h0a1.75,1.75,0,0,1-.67,2.38h0a1.68,1.68,0,0,1-.86.23h0A1.74,1.74,0,0,1,711.67,779.93Zm11.94-7.11a1.74,1.74,0,0,1,.52-2.42h0a1.76,1.76,0,0,1,2.42.52h0a1.76,1.76,0,0,1-.52,2.42h0a1.77,1.77,0,0,1-.95.28h0A1.73,1.73,0,0,1,723.61,772.82ZM735.1,765a1.75,1.75,0,0,1,.37-2.45h0a1.75,1.75,0,0,1,2.44.37h0a1.75,1.75,0,0,1-.37,2.45h0a1.72,1.72,0,0,1-1,.34h0A1.72,1.72,0,0,1,735.1,765Zm11-8.5a1.76,1.76,0,0,1,.22-2.47h0a1.76,1.76,0,0,1,2.47.22h0a1.76,1.76,0,0,1-.22,2.47h0a1.73,1.73,0,0,1-1.12.4h0A1.75,1.75,0,0,1,746.09,756.5Zm10.46-9.16a1.75,1.75,0,0,1,.07-2.47h0a1.75,1.75,0,0,1,2.48.07h0a1.75,1.75,0,0,1-.07,2.47h0a1.71,1.71,0,0,1-1.2.48h0A1.78,1.78,0,0,1,756.55,747.34Zm9.89-9.77a1.76,1.76,0,0,1-.08-2.48h0a1.76,1.76,0,0,1,2.48-.08h0a1.76,1.76,0,0,1,.07,2.48h0a1.76,1.76,0,0,1-1.27.55h0A1.78,1.78,0,0,1,766.44,737.57Zm9.28-10.36a1.76,1.76,0,0,1-.23-2.46h0a1.75,1.75,0,0,1,2.47-.23h0a1.75,1.75,0,0,1,.23,2.46h0a1.75,1.75,0,0,1-1.35.63h0A1.77,1.77,0,0,1,775.72,727.21Zm8.64-10.9a1.75,1.75,0,0,1-.38-2.44h0a1.76,1.76,0,0,1,2.45-.38h0a1.74,1.74,0,0,1,.38,2.44h0a1.73,1.73,0,0,1-1.41.72h0A1.72,1.72,0,0,1,784.36,716.31Zm8-11.4a1.75,1.75,0,0,1-.52-2.42h0a1.74,1.74,0,0,1,2.41-.53h0a1.75,1.75,0,0,1,.53,2.42h0a1.75,1.75,0,0,1-1.47.8h0A1.8,1.8,0,0,1,792.32,704.91ZM799.58,693a1.76,1.76,0,0,1-.68-2.39h0a1.76,1.76,0,0,1,2.39-.68h0a1.75,1.75,0,0,1,.67,2.38h0a1.74,1.74,0,0,1-1.53.9h0A1.74,1.74,0,0,1,799.58,693Zm6.51-12.29a1.75,1.75,0,0,1-.81-2.34h0a1.74,1.74,0,0,1,2.33-.82h0a1.76,1.76,0,0,1,.82,2.34h0a1.76,1.76,0,0,1-1.58,1h0A1.9,1.9,0,0,1,806.09,680.75Zm5.76-12.68a1.75,1.75,0,0,1-1-2.28h0a1.75,1.75,0,0,1,2.28-.95h0a1.75,1.75,0,0,1,1,2.28h0a1.77,1.77,0,0,1-1.62,1.09h0A1.74,1.74,0,0,1,811.85,668.07Zm5-13a1.74,1.74,0,0,1-1.1-2.21h0a1.75,1.75,0,0,1,2.22-1.1h0A1.76,1.76,0,0,1,819,654h0a1.76,1.76,0,0,1-1.66,1.19h0A1.54,1.54,0,0,1,816.82,655.07ZM821,641.79a1.74,1.74,0,0,1-1.23-2.14h0a1.74,1.74,0,0,1,2.15-1.23h0a1.75,1.75,0,0,1,1.23,2.14h0a1.75,1.75,0,0,1-1.69,1.29h0A1.82,1.82,0,0,1,821,641.79Zm3.33-13.49a1.76,1.76,0,0,1-1.36-2.07h0a1.74,1.74,0,0,1,2.06-1.36h0a1.74,1.74,0,0,1,1.36,2.07h0a1.75,1.75,0,0,1-1.71,1.39h0A2.19,2.19,0,0,1,824.31,628.3Zm2.5-13.68a1.76,1.76,0,0,1-1.48-2h0a1.75,1.75,0,0,1,2-1.48h0a1.74,1.74,0,0,1,1.49,2h0a1.76,1.76,0,0,1-1.74,1.5h0Zm1.67-13.8a1.76,1.76,0,0,1-1.6-1.89h0a1.75,1.75,0,0,1,1.89-1.6h0a1.75,1.75,0,0,1,1.6,1.89h0a1.76,1.76,0,0,1-1.74,1.61h-.15Zm.83-13.88a1.74,1.74,0,0,1-1.71-1.79h0a1.75,1.75,0,0,1,1.78-1.71h0a1.76,1.76,0,0,1,1.71,1.79h0a1.76,1.76,0,0,1-1.75,1.71h0Zm-1.83-15.58a1.76,1.76,0,0,1,1.69-1.82h0a1.75,1.75,0,0,1,1.81,1.68h0A1.75,1.75,0,0,1,829.3,573h-.07A1.75,1.75,0,0,1,827.48,571.36Zm-.93-13.77a1.74,1.74,0,0,1,1.56-1.91h0a1.75,1.75,0,0,1,1.92,1.57h0a1.75,1.75,0,0,1-1.57,1.91h-.18A1.74,1.74,0,0,1,826.55,557.59Zm-1.78-13.68a1.76,1.76,0,0,1,1.45-2h0a1.76,1.76,0,0,1,2,1.45h0a1.76,1.76,0,0,1-1.45,2h0l-.28,0h0A1.75,1.75,0,0,1,824.77,543.91Zm-2.6-13.55h0a1.75,1.75,0,0,1,1.32-2.09h0a1.76,1.76,0,0,1,2.1,1.32h0a1.76,1.76,0,0,1-1.33,2.09h0a1.73,1.73,0,0,1-.38.05h0A1.75,1.75,0,0,1,822.17,530.36ZM818.74,517h0a1.74,1.74,0,0,1,1.2-2.16h0a1.75,1.75,0,0,1,2.17,1.19h0a1.75,1.75,0,0,1-1.19,2.17h0a2,2,0,0,1-.48.07h0A1.76,1.76,0,0,1,818.74,517Zm-4.24-13.13h0a1.75,1.75,0,0,1,1.06-2.23h0a1.75,1.75,0,0,1,2.24,1.06h0a1.75,1.75,0,0,1-1.06,2.23h0a1.76,1.76,0,0,1-.59.11h0A1.76,1.76,0,0,1,814.5,503.86Z"/>
        <path d="M648.36,805.3a1.75,1.75,0,0,1-1.24-.52,1.79,1.79,0,0,1-.38-.56,2,2,0,0,1-.09-.33,1.32,1.32,0,0,1,0-.34,1.39,1.39,0,0,1,0-.35,1.68,1.68,0,0,1,.09-.32,1.46,1.46,0,0,1,.17-.3,1.39,1.39,0,0,1,.21-.27,1.75,1.75,0,0,1,1.58-.48,2.07,2.07,0,0,1,.33.1,2.11,2.11,0,0,1,.3.16,1.72,1.72,0,0,1,.49.49,2.11,2.11,0,0,1,.16.3,3,3,0,0,1,.1.32,2.07,2.07,0,0,1,0,.35,2,2,0,0,1,0,.34c0,.11-.06.22-.1.33s-.1.2-.16.3a2.75,2.75,0,0,1-.22.26,1.63,1.63,0,0,1-.57.38A1.71,1.71,0,0,1,648.36,805.3Z"/>
        <path d="M220.45,787.3c-62.88,0-101.21-12.78-109.88-37.35-6.81-19.31,4.91-44.13,34.83-73.76,28.43-28.16,73.16-60,129.34-91.94l.5.87c-56.11,32-100.77,63.69-129.14,91.78-29.2,28.92-41.16,54.07-34.58,72.72,5.59,15.85,23.85,26.73,54.27,32.36,29.53,5.45,69.16,5.73,117.78.83,100.07-10.09,227-41,357.31-86.93,268.89-94.84,468.94-225,445.94-290.24-13.84-39.25-107.06-47.55-249.36-22.21l-.18-1c68.72-12.23,127.91-16.83,171.18-13.27,44.84,3.68,72.27,16.17,79.31,36.14,11.27,31.95-29.06,79.88-113.56,135-84.32,55-202.58,110.56-333,156.56s-257.4,76.89-357.54,87C260.47,786.14,239.35,787.3,220.45,787.3Z"/>
        <path d="M629.12,598.2a29.3,29.3,0,0,1-38.62-27.81,29.45,29.45,0,0,1,12-23.62l1.15-.84-1.42-.06c-.47,0-.94,0-1.42,0A34.45,34.45,0,1,0,629.7,599l.77-1.2Z"/>
        <polygon points="638.97 561.69 625.5 561.69 635.03 552.16 632.9 550.04 623.38 559.57 623.38 546.1 620.38 546.1 620.38 559.57 610.86 550.04 608.74 552.16 618.26 561.69 604.79 561.69 604.79 564.69 618.26 564.69 608.74 574.21 610.86 576.33 620.38 566.81 620.38 580.27 623.38 580.27 623.38 566.81 632.9 576.33 635.03 574.21 625.5 564.69 638.97 564.69 638.97 561.69"/>
        <path d="M668,589.82c-7.92,0-14.35-6.69-14.35-14.91S660.11,560,668,560s14.35,6.68,14.35,14.91S675.94,589.82,668,589.82ZM668,563c-6.26,0-11.35,5.34-11.35,11.91s5.09,11.91,11.35,11.91,11.35-5.35,11.35-11.91S674.29,563,668,563Z"/>
        <rect x="763.15" y="560" width="3" height="29.72"/>
        <polygon points="800.38 560 776.03 560 776.03 563 786.71 563 786.71 589.82 789.71 589.82 789.71 563 800.38 563 800.38 560"/>
        <path d="M715.28,590.41l2.47-1.71-7.81-11.26a8.41,8.41,0,0,0,4.15-2.48,8.93,8.93,0,0,0,2.29-6.08,8.69,8.69,0,0,0-9.09-8.88H694.06v29.82h3V577.76h9.45Zm-18.22-15.65V563h10.23a5.67,5.67,0,0,1,6.09,5.88,5.69,5.69,0,0,1-6.09,5.88H697.06Z"/>
        <path d="M746.8,574.52a7.1,7.1,0,0,0,.75-.8,8.69,8.69,0,0,0,1.83-5.47c0-4-2.57-8.09-7.5-8.09h-13.5v29.66h13.5a9.19,9.19,0,0,0,6.75-2.55,8.07,8.07,0,0,0-1.83-12.75Zm-4.92-11.36c3.55,0,4.5,3.2,4.5,5.09a5.8,5.8,0,0,1-1.16,3.59,4.1,4.1,0,0,1-3.34,1.5h-10.5V563.16Zm4.63,22a6.37,6.37,0,0,1-4.63,1.67h-10.5V576.34h10.5c4.21,0,6.09,2.63,6.09,5.24A5,5,0,0,1,746.51,585.15Z"/>
        <polygon points="716.35 699.69 702.66 723.3 730.04 723.3 716.35 699.69"/>
        <polygon points="525.76 657.69 512.07 681.3 539.46 681.3 525.76 657.69"/>
        <polygon points="527.24 565.92 513.54 589.54 540.93 589.54 527.24 565.92"/>
        <polygon points="586.49 448.54 600.18 472.15 613.87 448.54 586.49 448.54"/>
        <path d="M669.27,610.48a1.71,1.71,0,0,1-.67-.14A1.51,1.51,0,0,1,668,610a1.73,1.73,0,0,1,0-2.47,1.81,1.81,0,0,1,2.47,0,1.76,1.76,0,0,1-1.24,3Z"/>
        <path d="M603.31,654.05a1.73,1.73,0,0,1,1.65-1.84h0a1.75,1.75,0,0,1,1.84,1.65h0a1.75,1.75,0,0,1-1.66,1.84h-.09A1.74,1.74,0,0,1,603.31,654.05Zm-12.26,1.1h0a1.75,1.75,0,0,1-1.5-2h0a1.73,1.73,0,0,1,2-1.5h0a1.75,1.75,0,0,1,1.51,2h0a1.76,1.76,0,0,1-1.74,1.52h0ZM617,652.37a1.76,1.76,0,0,1,1.29-2.12h0a1.75,1.75,0,0,1,2.11,1.28h0a1.75,1.75,0,0,1-1.28,2.12h0a2,2,0,0,1-.42.05h0A1.77,1.77,0,0,1,617,652.37ZM577.3,652a1.75,1.75,0,0,1-1.12-2.21h0a1.76,1.76,0,0,1,2.21-1.11h0a1.76,1.76,0,0,1,1.11,2.21h0a1.74,1.74,0,0,1-1.66,1.2h0A1.71,1.71,0,0,1,577.3,652Zm52.81-3.84a1.75,1.75,0,0,1,.87-2.32h0a1.76,1.76,0,0,1,2.32.87h0a1.76,1.76,0,0,1-.87,2.32h0a1.88,1.88,0,0,1-.73.16h0A1.76,1.76,0,0,1,630.11,648.16Zm-65.74-1.82a1.75,1.75,0,0,1-.68-2.38h0a1.75,1.75,0,0,1,2.38-.68h0a1.74,1.74,0,0,1,.68,2.38h0a1.75,1.75,0,0,1-1.53.9h0A1.74,1.74,0,0,1,564.37,646.34Zm77.86-4.76a1.75,1.75,0,0,1,.42-2.44h0a1.74,1.74,0,0,1,2.43.42h0a1.75,1.75,0,0,1-.42,2.44h0a1.71,1.71,0,0,1-1,.32h0A1.73,1.73,0,0,1,642.23,641.58Zm-89.5-3.21a1.74,1.74,0,0,1-.23-2.46h0a1.75,1.75,0,0,1,2.47-.23h0a1.75,1.75,0,0,1,.22,2.46h0a1.72,1.72,0,0,1-1.34.64h0A1.71,1.71,0,0,1,552.73,638.37Zm100.18-5.5a1.75,1.75,0,0,1,0-2.47h0a1.75,1.75,0,0,1,2.48,0h0a1.74,1.74,0,0,1,0,2.47h0a1.72,1.72,0,0,1-1.25.54h0A1.75,1.75,0,0,1,652.91,632.87ZM542.76,628.4a1.76,1.76,0,0,1,.23-2.47h0a1.76,1.76,0,0,1,2.47.23h0a1.75,1.75,0,0,1-.24,2.46h0a1.68,1.68,0,0,1-1.11.41h0A1.78,1.78,0,0,1,542.76,628.4Zm119-6.06a1.75,1.75,0,0,1-.49-2.43h0a1.76,1.76,0,0,1,2.43-.5h0a1.76,1.76,0,0,1,.49,2.43h0a1.74,1.74,0,0,1-1.46.78h0A1.74,1.74,0,0,1,661.8,622.34Zm-127-5.59a1.75,1.75,0,0,1,.68-2.38h0a1.76,1.76,0,0,1,2.38.68h0a1.75,1.75,0,0,1-.68,2.38h0a1.74,1.74,0,0,1-.85.22h0A1.73,1.73,0,0,1,534.81,616.75Z"/>
        <path d="M530.8,605a1.7,1.7,0,0,1-.67-.13,2,2,0,0,1-.57-.38,1.74,1.74,0,0,1-.51-1.23,2.07,2.07,0,0,1,0-.35,2,2,0,0,1,.26-.63,2.75,2.75,0,0,1,.22-.26,1.75,1.75,0,0,1,1.58-.48,1.39,1.39,0,0,1,.33.1,1.24,1.24,0,0,1,.3.16,1.44,1.44,0,0,1,.27.22,1.76,1.76,0,0,1,.51,1.24,1.73,1.73,0,0,1-.51,1.23,2,2,0,0,1-.57.38A1.7,1.7,0,0,1,530.8,605Z"/>
        <path d="M531.49,556.77a1.76,1.76,0,0,1-1.24-.51,1.78,1.78,0,0,1-.38-.57,1.15,1.15,0,0,1-.1-.33,1.27,1.27,0,0,1,0-.34,1.32,1.32,0,0,1,0-.34,1.39,1.39,0,0,1,.1-.33,2.19,2.19,0,0,1,.16-.3,1.86,1.86,0,0,1,.22-.27,1.76,1.76,0,0,1,1.58-.47,1.19,1.19,0,0,1,.32.1,1.08,1.08,0,0,1,.3.16,1.39,1.39,0,0,1,.27.21,2.88,2.88,0,0,1,.22.27,2.19,2.19,0,0,1,.16.3,2.07,2.07,0,0,1,.1.33,2,2,0,0,1,0,.34,1.86,1.86,0,0,1,0,.34,1.59,1.59,0,0,1-.1.33,1.43,1.43,0,0,1-.16.3,1.72,1.72,0,0,1-.49.49,2.11,2.11,0,0,1-.3.16l-.32.1Z"/>
        <path d="M536.58,543.86a1.74,1.74,0,0,1-.61-2.4h0a1.74,1.74,0,0,1,2.39-.61h0a1.76,1.76,0,0,1,.62,2.4h0a1.77,1.77,0,0,1-1.51.86h0A1.69,1.69,0,0,1,536.58,543.86ZM655.86,533.1h0a1.75,1.75,0,0,1,.18-2.47h0a1.76,1.76,0,0,1,2.47.19h0a1.75,1.75,0,0,1-.18,2.47h0a1.79,1.79,0,0,1-1.14.42h0A1.74,1.74,0,0,1,655.86,533.1Zm-111.28-.74a1.74,1.74,0,0,1-.15-2.47h0a1.75,1.75,0,0,1,2.47-.15h0a1.75,1.75,0,0,1,.15,2.47h0a1.72,1.72,0,0,1-1.3.59h0A1.7,1.7,0,0,1,544.58,532.36ZM646,523.61h0a1.75,1.75,0,0,1-.28-2.46h0a1.76,1.76,0,0,1,2.46-.28h0a1.75,1.75,0,0,1,.28,2.46h0a1.74,1.74,0,0,1-1.37.66h0A1.72,1.72,0,0,1,646,523.61Zm-91.42-1a1.76,1.76,0,0,1,.32-2.46h0a1.74,1.74,0,0,1,2.45.32h0a1.75,1.75,0,0,1-.31,2.45h0a1.74,1.74,0,0,1-1.07.37h0A1.79,1.79,0,0,1,554.59,522.57Zm80-6.43a1.75,1.75,0,0,1-.74-2.36h0a1.75,1.75,0,0,1,2.36-.74h0a1.75,1.75,0,0,1,.74,2.36h0a1.74,1.74,0,0,1-1.55.94h0A1.83,1.83,0,0,1,634.56,516.14Zm-68.29-1.31a1.75,1.75,0,0,1,.78-2.35h0a1.75,1.75,0,0,1,2.35.77h0a1.76,1.76,0,0,1-.78,2.35h0a1.7,1.7,0,0,1-.79.19h0A1.74,1.74,0,0,1,566.27,514.83ZM621.9,511a1.74,1.74,0,0,1-1.17-2.18h0a1.74,1.74,0,0,1,2.18-1.17h0a1.75,1.75,0,0,1,1.17,2.18h0A1.75,1.75,0,0,1,622.4,511h0A1.77,1.77,0,0,1,621.9,511Zm-42.7-1.54a1.76,1.76,0,0,1,1.21-2.16h0a1.76,1.76,0,0,1,2.17,1.21h0a1.75,1.75,0,0,1-1.21,2.16h0a2,2,0,0,1-.48.07h0A1.76,1.76,0,0,1,579.2,509.43Zm29.29-1.14a1.75,1.75,0,0,1-1.57-1.91h0a1.75,1.75,0,0,1,1.92-1.57h0a1.76,1.76,0,0,1,1.57,1.92h0a1.76,1.76,0,0,1-1.74,1.57h-.18Zm-15.57-1.7a1.74,1.74,0,0,1,1.59-1.89h0a1.75,1.75,0,0,1,1.89,1.59h0a1.76,1.76,0,0,1-1.59,1.9h-.15A1.75,1.75,0,0,1,592.92,506.59Z"/>
        <path d="M665.29,545.19a1.74,1.74,0,0,1-1.23-3,1.8,1.8,0,0,1,2.47,0,1.72,1.72,0,0,1,.51,1.23,1.76,1.76,0,0,1-.51,1.24A1.72,1.72,0,0,1,665.29,545.19Z"/>
        <path d="M624.57,462a1.37,1.37,0,0,1-.34,0,1.19,1.19,0,0,1-.32-.1,1.78,1.78,0,0,1-.57-.38,2.75,2.75,0,0,1-.22-.26,2.19,2.19,0,0,1-.16-.3,2.07,2.07,0,0,1-.1-.33,2,2,0,0,1,0-.34,1.75,1.75,0,0,1,2.09-1.72,2.07,2.07,0,0,1,.33.1,2.19,2.19,0,0,1,.3.16,2.75,2.75,0,0,1,.26.22,1.73,1.73,0,0,1,.52,1.24,2,2,0,0,1,0,.34,2.07,2.07,0,0,1-.1.33,2.19,2.19,0,0,1-.16.3,1.78,1.78,0,0,1-.22.26A1.73,1.73,0,0,1,624.57,462Z"/>
        <path d="M664.25,477.67a1.75,1.75,0,0,1-.57-2.41h0a1.75,1.75,0,0,1,2.41-.57h0a1.75,1.75,0,0,1,.57,2.41h0a1.77,1.77,0,0,1-1.49.83h0A1.83,1.83,0,0,1,664.25,477.67Zm-12.67-6.82h0a1.76,1.76,0,0,1-.86-2.33h0a1.76,1.76,0,0,1,2.33-.85h0a1.74,1.74,0,0,1,.85,2.32h0a1.75,1.75,0,0,1-1.59,1h0A1.75,1.75,0,0,1,651.58,470.85Zm-13.4-5.25h0a1.77,1.77,0,0,1-1.13-2.21h0a1.75,1.75,0,0,1,2.21-1.12h0a1.74,1.74,0,0,1,1.12,2.2h0a1.75,1.75,0,0,1-1.66,1.21h0A2,2,0,0,1,638.18,465.6Z"/>
        <path d="M677.12,486.34a2.09,2.09,0,0,1-.35,0,1.19,1.19,0,0,1-.32-.1,1.82,1.82,0,0,1-.31-.16,1.78,1.78,0,0,1-.26-.22,2.75,2.75,0,0,1-.22-.26,1.82,1.82,0,0,1-.16-.31,1.7,1.7,0,0,1-.1-.32,1.51,1.51,0,0,1,0-.69,1.7,1.7,0,0,1,.1-.32,1.82,1.82,0,0,1,.16-.31,2.05,2.05,0,0,1,.48-.48,1.82,1.82,0,0,1,.31-.16,1.7,1.7,0,0,1,.32-.1,2,2,0,0,1,.69,0,1.7,1.7,0,0,1,.32.1,1.82,1.82,0,0,1,.31.16,2.75,2.75,0,0,1,.26.22,1.78,1.78,0,0,1,.22.26,1.82,1.82,0,0,1,.16.31,1.7,1.7,0,0,1,.1.32,1.39,1.39,0,0,1,0,.35,1.37,1.37,0,0,1,0,.34,1.7,1.7,0,0,1-.1.32,1.82,1.82,0,0,1-.16.31,2.05,2.05,0,0,1-.48.48,1.82,1.82,0,0,1-.31.16,1.19,1.19,0,0,1-.32.1A2.09,2.09,0,0,1,677.12,486.34Z"/>
        <path d="M507.92,660.82a1.67,1.67,0,0,1-1.23-.52,1.32,1.32,0,0,1-.22-.26,2.28,2.28,0,0,1-.17-.3,2,2,0,0,1-.09-.33,1.27,1.27,0,0,1,0-.34,1.32,1.32,0,0,1,0-.34,1.39,1.39,0,0,1,.1-.33,1.08,1.08,0,0,1,.16-.3,1.13,1.13,0,0,1,.22-.27,1.81,1.81,0,0,1,2.47,0,2,2,0,0,1,.22.27,2.11,2.11,0,0,1,.16.3c0,.11.07.22.1.33a2,2,0,0,1,0,.34,1.76,1.76,0,0,1-1.75,1.75Z"/>
        <path d="M498,648.84a1.75,1.75,0,0,1,.48-2.43h0a1.75,1.75,0,0,1,2.43.49h0a1.74,1.74,0,0,1-.49,2.42h0a1.73,1.73,0,0,1-1,.3h0A1.75,1.75,0,0,1,498,648.84Zm-7.22-12.27a1.74,1.74,0,0,1,.76-2.35h0a1.74,1.74,0,0,1,2.36.76h0a1.74,1.74,0,0,1-.76,2.35h0a1.77,1.77,0,0,1-.8.19h0A1.74,1.74,0,0,1,490.8,636.57Zm-5.75-13a1.75,1.75,0,0,1,1-2.25h0a1.73,1.73,0,0,1,2.25,1h0a1.75,1.75,0,0,1-1,2.25h0a1.64,1.64,0,0,1-.61.11h0A1.75,1.75,0,0,1,485.05,623.56ZM480.84,610a1.74,1.74,0,0,1,1.27-2.12h0a1.76,1.76,0,0,1,2.12,1.28h0a1.75,1.75,0,0,1-1.27,2.12h0a1.63,1.63,0,0,1-.43,0h0A1.74,1.74,0,0,1,480.84,610Zm-2.62-14a1.76,1.76,0,0,1,1.51-2h0a1.75,1.75,0,0,1,2,1.51h0a1.75,1.75,0,0,1-1.51,2h0l-.22,0h0A1.76,1.76,0,0,1,478.22,596Zm-1-14.2A1.74,1.74,0,0,1,479,580h0a1.75,1.75,0,0,1,1.77,1.73h0a1.76,1.76,0,0,1-1.73,1.77h0A1.75,1.75,0,0,1,477.23,581.78Zm2.18-12.29a1.76,1.76,0,0,1-1.57-1.92h0a1.75,1.75,0,0,1,1.92-1.56h0a1.75,1.75,0,0,1,1.57,1.91h0a1.77,1.77,0,0,1-1.74,1.58h-.18Zm2-13.89a1.74,1.74,0,0,1-1.33-2.08h0a1.75,1.75,0,0,1,2.08-1.34h0a1.77,1.77,0,0,1,1.34,2.09h0a1.76,1.76,0,0,1-1.71,1.37h0A1.69,1.69,0,0,1,481.41,555.6ZM485,542a1.75,1.75,0,0,1-1.09-2.22h0a1.76,1.76,0,0,1,2.23-1.09h0a1.76,1.76,0,0,1,1.08,2.23h0a1.76,1.76,0,0,1-1.65,1.18h0A1.63,1.63,0,0,1,485,542ZM490.15,529a1.73,1.73,0,0,1-.82-2.33h0a1.75,1.75,0,0,1,2.33-.83h0a1.76,1.76,0,0,1,.82,2.34h0a1.74,1.74,0,0,1-1.58,1h0A1.68,1.68,0,0,1,490.15,529Zm6.6-12.38a1.75,1.75,0,0,1-.54-2.41h0a1.74,1.74,0,0,1,2.41-.55h0a1.75,1.75,0,0,1,.55,2.41h0a1.74,1.74,0,0,1-1.48.82h0A1.79,1.79,0,0,1,496.75,516.59Zm8-11.54a1.76,1.76,0,0,1-.27-2.46h0a1.76,1.76,0,0,1,2.46-.27h0a1.74,1.74,0,0,1,.27,2.46h0a1.74,1.74,0,0,1-1.36.66h0A1.74,1.74,0,0,1,504.74,505.05ZM514,494.5a1.74,1.74,0,0,1,0-2.47h0a1.74,1.74,0,0,1,2.47,0h0a1.75,1.75,0,0,1,0,2.48h0a1.78,1.78,0,0,1-1.23.5h0A1.72,1.72,0,0,1,514,494.5Zm10.39-9.42a1.75,1.75,0,0,1,.3-2.46h0a1.75,1.75,0,0,1,2.46.3h0a1.75,1.75,0,0,1-.3,2.45h0a1.76,1.76,0,0,1-1.08.38h0A1.76,1.76,0,0,1,524.38,485.08Zm11.4-8.18a1.75,1.75,0,0,1,.57-2.41h0a1.75,1.75,0,0,1,2.4.58h0a1.75,1.75,0,0,1-.57,2.41h0a1.83,1.83,0,0,1-.92.26h0A1.74,1.74,0,0,1,535.78,476.9ZM548,470.09a1.77,1.77,0,0,1,.85-2.33h0a1.75,1.75,0,0,1,2.33.85h0a1.75,1.75,0,0,1-.85,2.33h0a1.76,1.76,0,0,1-.74.16h0A1.77,1.77,0,0,1,548,470.09Zm13-5.36a1.75,1.75,0,0,1,1.11-2.21h0a1.75,1.75,0,0,1,2.21,1.11h0a1.74,1.74,0,0,1-1.11,2.21h0a1.76,1.76,0,0,1-.55.09h0A1.73,1.73,0,0,1,561,464.73Z"/>
        <path d="M576.25,462.29a1.73,1.73,0,0,1-1.23-.52,1.78,1.78,0,0,1-.22-.26,2.19,2.19,0,0,1-.16-.3,1.39,1.39,0,0,1-.1-.33,2,2,0,0,1,0-.34,1.76,1.76,0,0,1,2.1-1.72,1.7,1.7,0,0,1,.32.1l.31.16a2.75,2.75,0,0,1,.26.22,1.76,1.76,0,0,1,.51,1.24,2,2,0,0,1,0,.34,2.07,2.07,0,0,1-.1.33,2.19,2.19,0,0,1-.16.3,2.05,2.05,0,0,1-.48.48,1.3,1.3,0,0,1-.31.16,1.19,1.19,0,0,1-.32.1A1.39,1.39,0,0,1,576.25,462.29Z"/>
        <path d="M710.23,636.61a1.72,1.72,0,0,1-1.23-.51,1.13,1.13,0,0,1-.22-.27,1.46,1.46,0,0,1-.17-.3,1.68,1.68,0,0,1-.09-.32,1.39,1.39,0,0,1,0-.35,1.32,1.32,0,0,1,0-.34,1.39,1.39,0,0,1,.1-.33,1.24,1.24,0,0,1,.16-.3,1.44,1.44,0,0,1,.22-.27,1.81,1.81,0,0,1,2.47,0,2,2,0,0,1,.22.27,1.73,1.73,0,0,1,.16.3,2.07,2.07,0,0,1,.1.33,2,2,0,0,1,0,.34,2.07,2.07,0,0,1,0,.35,1.7,1.7,0,0,1-.1.32,1.78,1.78,0,0,1-.38.57A1.74,1.74,0,0,1,710.23,636.61Z"/>
        <path d="M598.7,703.94h0a1.75,1.75,0,0,1-1.72-1.78h0a1.74,1.74,0,0,1,1.78-1.71h0a1.75,1.75,0,0,1,1.72,1.79h0a1.75,1.75,0,0,1-1.76,1.71h0Zm12-2.09a1.75,1.75,0,0,1,1.58-1.9h0a1.75,1.75,0,0,1,1.9,1.58h0a1.74,1.74,0,0,1-1.58,1.9h-.16A1.74,1.74,0,0,1,610.72,701.85Zm-25.91,1.06h0a1.76,1.76,0,0,1-1.5-2h0a1.74,1.74,0,0,1,2-1.5h0a1.75,1.75,0,0,1,1.51,2h0a1.76,1.76,0,0,1-1.74,1.52h-.23Zm39.52-2.9a1.74,1.74,0,0,1,1.36-2.06h0a1.75,1.75,0,0,1,2.07,1.35h0a1.76,1.76,0,0,1-1.36,2.07h0a1.47,1.47,0,0,1-.36,0h0A1.75,1.75,0,0,1,624.33,700Zm-53.21.31h0a1.74,1.74,0,0,1-1.28-2.12h0a1.74,1.74,0,0,1,2.12-1.27h0a1.74,1.74,0,0,1,1.27,2.12h0a1.74,1.74,0,0,1-1.69,1.32h0A1.63,1.63,0,0,1,571.12,700.32Zm66.52-3.66a1.75,1.75,0,0,1,1.11-2.21h0a1.74,1.74,0,0,1,2.21,1.11h0a1.74,1.74,0,0,1-1.11,2.21h0a1.76,1.76,0,0,1-.55.09h0A1.76,1.76,0,0,1,637.64,696.66Zm-79.83-.46h0a1.74,1.74,0,0,1-1-2.25h0a1.76,1.76,0,0,1,2.25-1h0a1.76,1.76,0,0,1,1,2.25h0a1.76,1.76,0,0,1-1.65,1.14h0A1.68,1.68,0,0,1,557.81,696.2Zm92.68-4.39a1.74,1.74,0,0,1,.85-2.32h0a1.75,1.75,0,0,1,2.32.86h0a1.74,1.74,0,0,1-.85,2.32h0a1.75,1.75,0,0,1-.73.16h0A1.72,1.72,0,0,1,650.49,691.81Zm12.22-6.26a1.74,1.74,0,0,1,.59-2.4h0a1.74,1.74,0,0,1,2.4.59h0a1.74,1.74,0,0,1-.59,2.4h0a1.76,1.76,0,0,1-.91.25h0A1.73,1.73,0,0,1,662.71,685.55Zm11.44-7.6a1.74,1.74,0,0,1,.31-2.45h0a1.75,1.75,0,0,1,2.46.32h0a1.74,1.74,0,0,1-.32,2.45h0a1.72,1.72,0,0,1-1.07.37h0A1.73,1.73,0,0,1,674.15,678Zm10.51-8.82a1.75,1.75,0,0,1,.05-2.48h0a1.75,1.75,0,0,1,2.47,0h0a1.76,1.76,0,0,1,0,2.48h0a1.79,1.79,0,0,1-1.22.49h0A1.77,1.77,0,0,1,684.66,669.13Zm9.47-10a1.76,1.76,0,0,1-.23-2.47h0a1.75,1.75,0,0,1,2.46-.23h0a1.74,1.74,0,0,1,.23,2.46h0a1.76,1.76,0,0,1-1.35.64h0A1.81,1.81,0,0,1,694.13,659.18Zm8.3-10.95a1.75,1.75,0,0,1-.51-2.42h0a1.75,1.75,0,0,1,2.42-.51h0a1.75,1.75,0,0,1,.51,2.42h0a1.74,1.74,0,0,1-1.47.8h0A1.76,1.76,0,0,1,702.43,648.23Z"/>
        <path d="M545.8,690.77a1.7,1.7,0,0,1-.67-.13,1.75,1.75,0,0,1-1-.95,1.7,1.7,0,0,1-.13-.67,2,2,0,0,1,0-.34c0-.11.06-.22.1-.33a2.85,2.85,0,0,1,.16-.3,2,2,0,0,1,.22-.27,1.39,1.39,0,0,1,.27-.21,1.46,1.46,0,0,1,.3-.17l.33-.09a1.78,1.78,0,0,1,1.58.47,1.39,1.39,0,0,1,.21.27,1.78,1.78,0,0,1,.17.3c0,.11.07.22.1.33a2,2,0,0,1,0,.34,1.7,1.7,0,0,1-.13.67,1.75,1.75,0,0,1-.95.95A1.7,1.7,0,0,1,545.8,690.77Z"/>
        <path d="M777.66,610.79a1.74,1.74,0,0,1-1.24-.51,2,2,0,0,1-.38-.57,1.9,1.9,0,0,1-.13-.67,1.32,1.32,0,0,1,0-.34,1.39,1.39,0,0,1,.1-.33,1.24,1.24,0,0,1,.16-.3,1.38,1.38,0,0,1,.48-.48,1.78,1.78,0,0,1,.3-.17l.33-.1a1.94,1.94,0,0,1,.68,0l.33.1a1.46,1.46,0,0,1,.3.17,1.39,1.39,0,0,1,.27.21,2,2,0,0,1,.22.27,2.85,2.85,0,0,1,.16.3,2.07,2.07,0,0,1,.1.33,2,2,0,0,1,0,.34,1.7,1.7,0,0,1-.13.67,1.73,1.73,0,0,1-.16.3,2.61,2.61,0,0,1-.22.27,2,2,0,0,1-.57.38A1.9,1.9,0,0,1,777.66,610.79Z"/>
        <path d="M741.9,690.5a1.75,1.75,0,0,1-.33-2.45h0a1.75,1.75,0,0,1,2.46-.32h0a1.75,1.75,0,0,1,.32,2.46h0a1.77,1.77,0,0,1-1.39.68h0A1.69,1.69,0,0,1,741.9,690.5Zm8.59-11.91a1.74,1.74,0,0,1-.52-2.42h0a1.74,1.74,0,0,1,2.42-.52h0a1.76,1.76,0,0,1,.52,2.42h0a1.75,1.75,0,0,1-1.47.8h0A1.73,1.73,0,0,1,750.49,678.59ZM758.07,666a1.75,1.75,0,0,1-.71-2.37h0a1.74,1.74,0,0,1,2.37-.72h0a1.75,1.75,0,0,1,.71,2.37h0a1.74,1.74,0,0,1-1.54.92h0A1.78,1.78,0,0,1,758.07,666Zm6.53-13.17a1.74,1.74,0,0,1-.91-2.3h0a1.76,1.76,0,0,1,2.3-.91h0a1.76,1.76,0,0,1,.91,2.31h0a1.75,1.75,0,0,1-1.61,1h0A1.68,1.68,0,0,1,764.6,652.84ZM770,639.19a1.75,1.75,0,0,1-1.1-2.22h0a1.75,1.75,0,0,1,2.22-1.1h0a1.75,1.75,0,0,1,1.09,2.22h0a1.76,1.76,0,0,1-1.66,1.19h0A1.77,1.77,0,0,1,770,639.19Zm4.27-14.06A1.74,1.74,0,0,1,773,623h0a1.74,1.74,0,0,1,2.12-1.27h0a1.75,1.75,0,0,1,1.28,2.12h0a1.77,1.77,0,0,1-1.7,1.33h0A1.52,1.52,0,0,1,774.29,625.13Z"/>
        <path d="M733.54,702.14a1.75,1.75,0,0,1-1.24-.52,1.78,1.78,0,0,1-.22-.26,2.19,2.19,0,0,1-.16-.3,2.07,2.07,0,0,1-.1-.33,2,2,0,0,1,0-.34,1.76,1.76,0,0,1,.51-1.24,2,2,0,0,1,.27-.22,2.11,2.11,0,0,1,.3-.16,1.7,1.7,0,0,1,.32-.1,1.76,1.76,0,0,1,2.1,1.72,1.32,1.32,0,0,1,0,.34,1.39,1.39,0,0,1-.1.33,1.46,1.46,0,0,1-.16.3,1.32,1.32,0,0,1-.22.26A1.71,1.71,0,0,1,733.54,702.14Z"/>
        <path d="M538.51,414.18a1.87,1.87,0,0,1-.34,0,1.59,1.59,0,0,1-.33-.1,2.11,2.11,0,0,1-.3-.16,1.72,1.72,0,0,1-.49-.49,1.43,1.43,0,0,1-.16-.3,1.8,1.8,0,0,1-.1-.33,1.87,1.87,0,0,1,0-.34,1.76,1.76,0,0,1,.51-1.24,1.39,1.39,0,0,1,.27-.21,1.08,1.08,0,0,1,.3-.16,1.15,1.15,0,0,1,.33-.1,1.56,1.56,0,0,1,.68,0,1.39,1.39,0,0,1,.33.1,1.46,1.46,0,0,1,.3.16,1.71,1.71,0,0,1,.26.21,1.44,1.44,0,0,1,.22.27,1.73,1.73,0,0,1,.16.3,1.39,1.39,0,0,1,.1.33,2,2,0,0,1,0,.34,1.86,1.86,0,0,1,0,.34,1.26,1.26,0,0,1-.1.33,1.78,1.78,0,0,1-.38.57,2.75,2.75,0,0,1-.26.22l-.3.16a2.07,2.07,0,0,1-.33.1A2,2,0,0,1,538.51,414.18Z"/>
        <path d="M765.67,514.45h0a1.74,1.74,0,0,1,1-2.27h0a1.74,1.74,0,0,1,2.27,1h0a1.76,1.76,0,0,1-1,2.28h0a1.91,1.91,0,0,1-.65.12h0A1.74,1.74,0,0,1,765.67,514.45Zm-5.57-12.53h0a1.75,1.75,0,0,1,.8-2.34h0a1.74,1.74,0,0,1,2.34.8h0a1.74,1.74,0,0,1-.79,2.34h0a1.77,1.77,0,0,1-.77.18h0A1.74,1.74,0,0,1,760.1,501.92Zm-6.54-12.06a1.74,1.74,0,0,1,.62-2.39h0a1.74,1.74,0,0,1,2.39.61h0a1.76,1.76,0,0,1-.61,2.4h0a1.8,1.8,0,0,1-.89.24h0A1.74,1.74,0,0,1,753.56,489.86Zm-7.45-11.51a1.76,1.76,0,0,1,.43-2.44h0a1.74,1.74,0,0,1,2.44.43h0a1.75,1.75,0,0,1-.43,2.43h0a1.68,1.68,0,0,1-1,.32h0A1.78,1.78,0,0,1,746.11,478.35Zm-8.31-10.91A1.74,1.74,0,0,1,738,465h0a1.75,1.75,0,0,1,2.46.23h0a1.75,1.75,0,0,1-.24,2.47h0a1.72,1.72,0,0,1-1.11.4h0A1.76,1.76,0,0,1,737.8,467.44Zm-9.13-10.23a1.75,1.75,0,0,1,.05-2.48h0a1.74,1.74,0,0,1,2.47,0h0a1.75,1.75,0,0,1,0,2.47h0a1.74,1.74,0,0,1-1.22.49h0A1.79,1.79,0,0,1,728.67,457.21Zm-9.89-9.51a1.75,1.75,0,0,1-.14-2.47h0a1.75,1.75,0,0,1,2.47-.15h0a1.76,1.76,0,0,1,.14,2.48h0a1.71,1.71,0,0,1-1.3.58h0A1.74,1.74,0,0,1,718.78,447.7ZM708.19,439h0a1.74,1.74,0,0,1-.34-2.45h0a1.74,1.74,0,0,1,2.45-.34h0a1.75,1.75,0,0,1,.34,2.45h0a1.74,1.74,0,0,1-1.4.69h0A1.75,1.75,0,0,1,708.19,439ZM697,431.11a1.76,1.76,0,0,1-.52-2.42h0a1.76,1.76,0,0,1,2.42-.52h0a1.75,1.75,0,0,1,.52,2.42h0a1.74,1.74,0,0,1-1.47.8h0A1.75,1.75,0,0,1,697,431.11Zm-11.8-7a1.75,1.75,0,0,1-.71-2.37h0a1.75,1.75,0,0,1,2.37-.71h0a1.75,1.75,0,0,1,.71,2.37h0a1.75,1.75,0,0,1-1.54.92h0A1.76,1.76,0,0,1,685.16,424.13Zm-12.31-6a1.76,1.76,0,0,1-.89-2.31h0a1.74,1.74,0,0,1,2.31-.89h0a1.75,1.75,0,0,1,.89,2.31h0a1.75,1.75,0,0,1-1.6,1h0A1.78,1.78,0,0,1,672.85,418.09ZM660.11,413a1.76,1.76,0,0,1-1.07-2.24h0a1.74,1.74,0,0,1,2.23-1.06h0a1.75,1.75,0,0,1,1.07,2.23h0a1.75,1.75,0,0,1-1.65,1.17h0A2,2,0,0,1,660.11,413ZM550,408.58a1.75,1.75,0,0,1,1.2-2.16h0a1.75,1.75,0,0,1,2.17,1.2h0a1.75,1.75,0,0,1-1.2,2.16h0a1.71,1.71,0,0,1-.49.07h0A1.75,1.75,0,0,1,550,408.58Zm97,.38h0a1.76,1.76,0,0,1-1.24-2.15h0a1.74,1.74,0,0,1,2.15-1.23h0a1.74,1.74,0,0,1,1.23,2.14h0a1.75,1.75,0,0,1-1.69,1.3h0A1.74,1.74,0,0,1,647,409Zm-83.61-3.81a1.75,1.75,0,0,1,1.37-2.06h0a1.75,1.75,0,0,1,2.06,1.36h0a1.76,1.76,0,0,1-1.36,2.07h0a2.19,2.19,0,0,1-.36,0h0A1.75,1.75,0,0,1,563.4,405.15Zm70.23.78h0a1.76,1.76,0,0,1-1.41-2h0a1.75,1.75,0,0,1,2-1.4h0a1.75,1.75,0,0,1,1.4,2h0A1.76,1.76,0,0,1,634,406h0Zm-56.58-3.15a1.75,1.75,0,0,1,1.52-1.95h0a1.75,1.75,0,0,1,1.95,1.52h0A1.75,1.75,0,0,1,579,404.3h0l-.22,0h0A1.75,1.75,0,0,1,577.05,402.78Zm43,1.17a1.75,1.75,0,0,1-1.56-1.93h0a1.75,1.75,0,0,1,1.93-1.55h0a1.74,1.74,0,0,1,1.55,1.92h0a1.75,1.75,0,0,1-1.74,1.57h-.18Zm-29.23-2.48a1.75,1.75,0,0,1,1.67-1.83h0a1.75,1.75,0,0,1,1.83,1.67h0a1.75,1.75,0,0,1-1.66,1.83h-.08A1.74,1.74,0,0,1,590.84,401.47ZM606.38,403a1.75,1.75,0,0,1-1.69-1.8h0a1.75,1.75,0,0,1,1.8-1.7h0a1.75,1.75,0,0,1,1.69,1.8h0a1.74,1.74,0,0,1-1.74,1.7h-.06Z"/>
        <path d="M772,528.66a1.39,1.39,0,0,1-.35,0,1.19,1.19,0,0,1-.32-.1,1.3,1.3,0,0,1-.31-.16,1.71,1.71,0,0,1-.26-.21,1.44,1.44,0,0,1-.22-.27,2.19,2.19,0,0,1-.16-.3,1.39,1.39,0,0,1-.1-.33,2,2,0,0,1,0-.34,1.77,1.77,0,0,1,.52-1.24,1.81,1.81,0,0,1,2.47,0,1.76,1.76,0,0,1,.51,1.24,2,2,0,0,1,0,.34,2.07,2.07,0,0,1-.1.33,1.73,1.73,0,0,1-.16.3,1.44,1.44,0,0,1-.22.27,1.71,1.71,0,0,1-.26.21,1.3,1.3,0,0,1-.31.16,1.19,1.19,0,0,1-.32.1A1.37,1.37,0,0,1,772,528.66Z"/>
        <path d="M487.13,719.83a2,2,0,0,1-.34,0,2.07,2.07,0,0,1-.33-.1,1.79,1.79,0,0,1-.56-.38,1.81,1.81,0,0,1-.39-.57,1.9,1.9,0,0,1-.13-.67,1.77,1.77,0,0,1,.52-1.24,1.33,1.33,0,0,1,.26-.21,1.46,1.46,0,0,1,.3-.16,1.39,1.39,0,0,1,.33-.1,1.56,1.56,0,0,1,.68,0,1.15,1.15,0,0,1,.33.1,1.08,1.08,0,0,1,.3.16,1.39,1.39,0,0,1,.27.21,1.76,1.76,0,0,1,.51,1.24,1.7,1.7,0,0,1-.13.67,2,2,0,0,1-.38.57,1.73,1.73,0,0,1-.57.38,1.7,1.7,0,0,1-.32.1A2.07,2.07,0,0,1,487.13,719.83Z"/>
        <path d="M475.57,710.09a1.74,1.74,0,0,1,0-2.47h0a1.74,1.74,0,0,1,2.47,0h0a1.74,1.74,0,0,1,.05,2.47h0a1.75,1.75,0,0,1-1.27.53h0A1.74,1.74,0,0,1,475.57,710.09ZM465.88,700h0a1.74,1.74,0,0,1,.14-2.47h0a1.77,1.77,0,0,1,2.48.15h0a1.75,1.75,0,0,1-.15,2.47h0a1.79,1.79,0,0,1-1.16.44h0A1.73,1.73,0,0,1,465.88,700ZM457,689.15h0a1.74,1.74,0,0,1,.34-2.45h0a1.74,1.74,0,0,1,2.45.34h0a1.75,1.75,0,0,1-.34,2.45h0a1.72,1.72,0,0,1-1.05.35h0A1.76,1.76,0,0,1,457,689.15Zm-8-11.48a1.75,1.75,0,0,1,.52-2.42h0a1.75,1.75,0,0,1,2.42.53h0a1.76,1.76,0,0,1-.52,2.42h0a1.75,1.75,0,0,1-.95.28h0A1.74,1.74,0,0,1,449,677.67Zm-7.11-12.07a1.75,1.75,0,0,1,.71-2.37h0a1.76,1.76,0,0,1,2.37.71h0a1.74,1.74,0,0,1-.71,2.37h0a1.68,1.68,0,0,1-.83.21h0A1.73,1.73,0,0,1,441.86,665.6ZM435.71,653a1.74,1.74,0,0,1,.89-2.31h0a1.75,1.75,0,0,1,2.31.9h0a1.76,1.76,0,0,1-.9,2.31h0a1.75,1.75,0,0,1-.7.14h0A1.72,1.72,0,0,1,435.71,653Zm-5.16-13a1.75,1.75,0,0,1,1.07-2.23h0a1.77,1.77,0,0,1,2.24,1.07h0a1.75,1.75,0,0,1-1.07,2.23h0a1.65,1.65,0,0,1-.58.1h0A1.76,1.76,0,0,1,430.55,640Zm-4.12-13.38a1.74,1.74,0,0,1,1.24-2.14h0a1.74,1.74,0,0,1,2.14,1.24h0a1.74,1.74,0,0,1-1.24,2.14h0a1.74,1.74,0,0,1-.45.06h0A1.76,1.76,0,0,1,426.43,626.62ZM423.37,613a1.73,1.73,0,0,1,1.4-2h0a1.74,1.74,0,0,1,2,1.4h0a1.75,1.75,0,0,1-1.41,2h0a1.63,1.63,0,0,1-.31,0h0A1.75,1.75,0,0,1,423.37,613Zm-2-13.85a1.74,1.74,0,0,1,1.56-1.92h0a1.75,1.75,0,0,1,1.92,1.56h0a1.75,1.75,0,0,1-1.56,1.92h-.19A1.74,1.74,0,0,1,421.38,599.1Zm-.92-14h0a1.74,1.74,0,0,1,1.7-1.79h0A1.75,1.75,0,0,1,424,585h0a1.75,1.75,0,0,1-1.7,1.79h-.05A1.75,1.75,0,0,1,420.46,585.12ZM422.27,573a1.75,1.75,0,0,1-1.66-1.84h0a1.75,1.75,0,0,1,1.83-1.66h0a1.75,1.75,0,0,1,1.67,1.83h0a1.76,1.76,0,0,1-1.75,1.67h-.09Zm1.08-13.84a1.74,1.74,0,0,1-1.51-2h0a1.74,1.74,0,0,1,2-1.51h0a1.75,1.75,0,0,1,1.52,2h0a1.75,1.75,0,0,1-1.73,1.53h-.23Zm2.15-13.72a1.74,1.74,0,0,1-1.36-2.06h0a1.75,1.75,0,0,1,2.07-1.36h0a1.74,1.74,0,0,1,1.36,2.06h0a1.75,1.75,0,0,1-1.72,1.4h0A1.45,1.45,0,0,1,425.5,545.39Zm3.2-13.5a1.76,1.76,0,0,1-1.19-2.17h0a1.76,1.76,0,0,1,2.17-1.19h0a1.75,1.75,0,0,1,1.19,2.17h0a1.75,1.75,0,0,1-1.68,1.26h0A1.71,1.71,0,0,1,428.7,531.89ZM433,518.68a1.74,1.74,0,0,1-1-2.25h0a1.73,1.73,0,0,1,2.25-1h0a1.74,1.74,0,0,1,1,2.25h0a1.75,1.75,0,0,1-1.64,1.13h0A1.64,1.64,0,0,1,433,518.68Zm5.27-12.84a1.74,1.74,0,0,1-.84-2.32h0a1.74,1.74,0,0,1,2.32-.85h0a1.76,1.76,0,0,1,.85,2.33h0a1.74,1.74,0,0,1-1.58,1h0A1.63,1.63,0,0,1,438.23,505.84Zm6.25-12.38a1.75,1.75,0,0,1-.66-2.39h0a1.75,1.75,0,0,1,2.39-.66h0a1.76,1.76,0,0,1,.66,2.39h0a1.73,1.73,0,0,1-1.52.88h0A1.78,1.78,0,0,1,444.48,493.46Zm7.2-11.87a1.75,1.75,0,0,1-.48-2.43h0a1.74,1.74,0,0,1,2.42-.47h0a1.75,1.75,0,0,1,.48,2.43h0a1.76,1.76,0,0,1-1.46.77h0A1.76,1.76,0,0,1,451.68,481.59Zm8.09-11.27a1.74,1.74,0,0,1-.28-2.46h0a1.75,1.75,0,0,1,2.45-.28h0a1.75,1.75,0,0,1,.29,2.46h0a1.78,1.78,0,0,1-1.38.66h0A1.7,1.7,0,0,1,459.77,470.32Z"/>
        <path d="M469.94,460.13a1.77,1.77,0,0,1-1.24-.52,2.75,2.75,0,0,1-.22-.26c-.06-.1-.11-.2-.16-.3s-.07-.22-.1-.33a2,2,0,0,1,0-.34,1.87,1.87,0,0,1,0-.34,2.58,2.58,0,0,1,.1-.33,2.11,2.11,0,0,1,.16-.3,2,2,0,0,1,.22-.27,1.82,1.82,0,0,1,2.48,0,2,2,0,0,1,.22.27,2.11,2.11,0,0,1,.16.3,1.59,1.59,0,0,1,.09.33,1.27,1.27,0,0,1,0,.34,1.76,1.76,0,0,1-1.75,1.75Z"/>
        <path d="M696.85,733a1.71,1.71,0,0,1-.67-.14,1.63,1.63,0,0,1-.57-.38,1.72,1.72,0,0,1-.51-1.23,1.87,1.87,0,0,1,0-.34,2.58,2.58,0,0,1,.1-.33,1.46,1.46,0,0,1,.17-.3,1.39,1.39,0,0,1,.21-.27,2,2,0,0,1,.27-.22,2.19,2.19,0,0,1,.3-.16,2.07,2.07,0,0,1,.33-.1,1.76,1.76,0,0,1,1.58.48,2,2,0,0,1,.22.27,2.11,2.11,0,0,1,.16.3,2.58,2.58,0,0,1,.1.33,1.87,1.87,0,0,1,0,.34,1.72,1.72,0,0,1-.51,1.23A1.75,1.75,0,0,1,696.85,733Z"/>
        <path d="M601.74,759a1.74,1.74,0,0,1,1.72-1.77h0a1.75,1.75,0,0,1,1.77,1.73h0a1.74,1.74,0,0,1-1.72,1.77h0A1.75,1.75,0,0,1,601.74,759Zm-12.46,1.37h0a1.75,1.75,0,0,1-1.63-1.86h0a1.74,1.74,0,0,1,1.86-1.63h0a1.75,1.75,0,0,1,1.63,1.86h0a1.75,1.75,0,0,1-1.74,1.63h-.12Zm26.53-2a1.74,1.74,0,0,1,1.59-1.9h0a1.75,1.75,0,0,1,1.9,1.58h0a1.75,1.75,0,0,1-1.59,1.9h-.16A1.76,1.76,0,0,1,615.81,758.45Zm-40.68.49a1.74,1.74,0,0,1-1.48-2h0a1.74,1.74,0,0,1,2-1.48h0a1.74,1.74,0,0,1,1.48,2h0a1.75,1.75,0,0,1-1.73,1.5h0Zm54.67-2.19a1.76,1.76,0,0,1,1.43-2h0a1.75,1.75,0,0,1,2,1.43h0a1.75,1.75,0,0,1-1.43,2h0a1.53,1.53,0,0,1-.3,0h0A1.75,1.75,0,0,1,629.8,756.75ZM643.61,754a1.75,1.75,0,0,1,1.26-2.13h0a1.75,1.75,0,0,1,2.13,1.26h0a1.75,1.75,0,0,1-1.26,2.13h0a1.65,1.65,0,0,1-.43.06h0A1.75,1.75,0,0,1,643.61,754Zm13.54-3.88a1.75,1.75,0,0,1,1.1-2.22h0a1.75,1.75,0,0,1,2.22,1.09h0a1.75,1.75,0,0,1-1.09,2.22h0a1.63,1.63,0,0,1-.57.1h0A1.76,1.76,0,0,1,657.15,750.08Zm13.2-4.94a1.75,1.75,0,0,1,.92-2.3h0a1.74,1.74,0,0,1,2.3.91h0a1.75,1.75,0,0,1-.92,2.3h0a1.67,1.67,0,0,1-.69.14h0A1.75,1.75,0,0,1,670.35,745.14Zm12.77-6a1.75,1.75,0,0,1,.73-2.37h0a1.75,1.75,0,0,1,2.36.73h0a1.74,1.74,0,0,1-.73,2.36h0a1.78,1.78,0,0,1-.82.21h0A1.75,1.75,0,0,1,683.12,739.17Z"/>
        <path d="M561.49,756.4a1.67,1.67,0,0,1-.67-.14,1.08,1.08,0,0,1-.3-.16,1.13,1.13,0,0,1-.27-.22,1.78,1.78,0,0,1-.22-.26,2.19,2.19,0,0,1-.16-.3,2.07,2.07,0,0,1-.1-.33,2,2,0,0,1,0-.34,1.74,1.74,0,0,1,.51-1.24,1.81,1.81,0,0,1,2.47,0,1.78,1.78,0,0,1,.38.57,1.15,1.15,0,0,1,.1.33,1.27,1.27,0,0,1,0,.34,1.32,1.32,0,0,1,0,.34,1.39,1.39,0,0,1-.1.33,1.46,1.46,0,0,1-.16.3,2.05,2.05,0,0,1-.48.48,1.46,1.46,0,0,1-.3.16,1.39,1.39,0,0,1-.33.1A1.32,1.32,0,0,1,561.49,756.4Z"/>
        <rect x="341.15" y="438.3" width="22.18" height="22.18"/>
        <rect x="557.85" y="291.25" width="22.18" height="22.18"/>
        <rect x="870.56" y="560.19" width="22.18" height="22.18"/>
        <rect x="749.15" y="800.19" width="22.18" height="22.18"/>
        <polygon points="397.66 768.42 385.94 787.95 406.87 787.95 418.59 768.42 397.66 768.42"/>
        <path d="M873.41,508.51a1.72,1.72,0,0,1-1.23-.51,1.32,1.32,0,0,1-.22-.26,1.82,1.82,0,0,1-.16-.31,1.19,1.19,0,0,1-.1-.32,1.37,1.37,0,0,1,0-.34,1.75,1.75,0,0,1,.52-1.24,1.81,1.81,0,0,1,2.47,0,1.74,1.74,0,0,1,.51,1.24,2,2,0,0,1,0,.34,1.7,1.7,0,0,1-.1.32,1.82,1.82,0,0,1-.16.31,2.75,2.75,0,0,1-.22.26A1.76,1.76,0,0,1,873.41,508.51Z"/>
        <path d="M877.62,534.6a1.74,1.74,0,0,1,1.45-2h0a1.75,1.75,0,0,1,2,1.44h0a1.77,1.77,0,0,1-1.45,2h0a1.42,1.42,0,0,1-.29,0h0A1.75,1.75,0,0,1,877.62,534.6ZM875,520.84h0a1.74,1.74,0,0,1,1.34-2.08h0a1.76,1.76,0,0,1,2.08,1.34h0a1.75,1.75,0,0,1-1.35,2.08h0a1.47,1.47,0,0,1-.36,0h0A1.74,1.74,0,0,1,875,520.84Z"/>
        <path d="M881.27,550a1.8,1.8,0,0,1-1.24-.51,1.39,1.39,0,0,1-.21-.27,1.46,1.46,0,0,1-.17-.3,2,2,0,0,1-.09-.33,1.27,1.27,0,0,1,0-.34,1.8,1.8,0,0,1,.51-1.24,1.39,1.39,0,0,1,.27-.21,1.46,1.46,0,0,1,.3-.16,1.39,1.39,0,0,1,.33-.1,1.56,1.56,0,0,1,.68,0,1.15,1.15,0,0,1,.33.1,1.08,1.08,0,0,1,.3.16,1.39,1.39,0,0,1,.27.21,1.76,1.76,0,0,1,0,2.48,2,2,0,0,1-.27.22,2.11,2.11,0,0,1-.3.16l-.33.1A1.87,1.87,0,0,1,881.27,550Z"/>
        <path d="M592.06,300a2,2,0,0,1-.34,0,2.07,2.07,0,0,1-.33-.1,2.19,2.19,0,0,1-.3-.16,1.44,1.44,0,0,1-.27-.22,1.71,1.71,0,0,1-.21-.26,1.3,1.3,0,0,1-.16-.31,1.15,1.15,0,0,1-.1-.33,1.27,1.27,0,0,1,0-.34,1.76,1.76,0,0,1,.51-1.23,1.44,1.44,0,0,1,.27-.22,2.19,2.19,0,0,1,.3-.16,1.39,1.39,0,0,1,.33-.1,1.56,1.56,0,0,1,.68,0,1.15,1.15,0,0,1,.33.1,1.78,1.78,0,0,1,.57.38,2.75,2.75,0,0,1,.22.26c.06.1.11.2.16.3s.07.22.1.33a2,2,0,0,1,0,.34,1.76,1.76,0,0,1-.51,1.24,1.78,1.78,0,0,1-.57.38,1.59,1.59,0,0,1-.33.1A1.87,1.87,0,0,1,592.06,300Z"/>
        <path d="M771,357.29a1.76,1.76,0,0,1-.32-2.46h0a1.75,1.75,0,0,1,2.45-.32h0a1.74,1.74,0,0,1,.33,2.45h0a1.77,1.77,0,0,1-1.39.69h0A1.79,1.79,0,0,1,771,357.29Zm-11.06-8h0a1.76,1.76,0,0,1-.44-2.44h0a1.75,1.75,0,0,1,2.43-.44h0a1.74,1.74,0,0,1,.45,2.43h0a1.74,1.74,0,0,1-1.44.76h0A1.73,1.73,0,0,1,760,349.25Zm-11.45-7.49a1.74,1.74,0,0,1-.57-2.41h0a1.75,1.75,0,0,1,2.41-.56h0a1.75,1.75,0,0,1,.57,2.4h0a1.76,1.76,0,0,1-1.49.83h0A1.69,1.69,0,0,1,748.51,341.76Zm-11.8-6.92h0a1.76,1.76,0,0,1-.68-2.38h0a1.74,1.74,0,0,1,2.38-.68h0a1.73,1.73,0,0,1,.68,2.37h0a1.74,1.74,0,0,1-1.53.91h0A1.67,1.67,0,0,1,736.71,334.84Zm-12.13-6.34a1.75,1.75,0,0,1-.8-2.34h0a1.75,1.75,0,0,1,2.34-.8h0a1.74,1.74,0,0,1,.8,2.34h0a1.75,1.75,0,0,1-1.57,1h0A1.77,1.77,0,0,1,724.58,328.5Zm-12.42-5.74a1.75,1.75,0,0,1-.92-2.3h0a1.77,1.77,0,0,1,2.31-.91h0a1.76,1.76,0,0,1,.91,2.3h0a1.76,1.76,0,0,1-1.61,1.06h0A1.68,1.68,0,0,1,712.16,322.76Zm-12.69-5.11a1.75,1.75,0,0,1-1-2.26h0a1.76,1.76,0,0,1,2.26-1h0a1.75,1.75,0,0,1,1,2.25h0a1.75,1.75,0,0,1-1.64,1.14h0A1.87,1.87,0,0,1,699.47,317.65Zm-12.93-4.49h0a1.75,1.75,0,0,1-1.13-2.2h0a1.76,1.76,0,0,1,2.2-1.14h0a1.75,1.75,0,0,1,1.13,2.2h0a1.73,1.73,0,0,1-1.67,1.22h0A1.67,1.67,0,0,1,686.54,313.16Zm-13.13-3.85a1.75,1.75,0,0,1-1.24-2.14h0a1.74,1.74,0,0,1,2.14-1.24h0a1.74,1.74,0,0,1,1.24,2.14h0a1.75,1.75,0,0,1-1.69,1.3h0A1.74,1.74,0,0,1,673.41,309.31Zm-13.3-3.2a1.75,1.75,0,0,1-1.35-2.07h0a1.75,1.75,0,0,1,2.08-1.35h0a1.75,1.75,0,0,1,1.35,2.08h0a1.76,1.76,0,0,1-1.72,1.38h0A1.47,1.47,0,0,1,660.11,306.11Zm-13.45-2.54a1.74,1.74,0,0,1-1.44-2h0a1.74,1.74,0,0,1,2-1.44h0a1.74,1.74,0,0,1,1.44,2h0a1.75,1.75,0,0,1-1.73,1.47h0Zm-13.55-1.88a1.75,1.75,0,0,1-1.55-1.93h0a1.75,1.75,0,0,1,1.94-1.54h0a1.74,1.74,0,0,1,1.54,1.93h0a1.75,1.75,0,0,1-1.73,1.56h0Zm-13.63-1.21h0a1.76,1.76,0,0,1-1.64-1.86h0A1.76,1.76,0,0,1,619.7,297h0a1.75,1.75,0,0,1,1.63,1.86h0a1.75,1.75,0,0,1-1.74,1.64h-.11Zm-13.68-.56a1.74,1.74,0,0,1-1.72-1.78h0a1.75,1.75,0,0,1,1.78-1.72h0a1.76,1.76,0,0,1,1.72,1.78h0a1.75,1.75,0,0,1-1.75,1.72h0Z"/>
        <path d="M782.81,366.26a2.09,2.09,0,0,1-.35,0,1.7,1.7,0,0,1-.32-.1,1.82,1.82,0,0,1-.31-.16,2.05,2.05,0,0,1-.48-.48,1.82,1.82,0,0,1-.16-.31,1.7,1.7,0,0,1-.1-.32,2,2,0,0,1,0-.34,1.72,1.72,0,0,1,.51-1.24,1.78,1.78,0,0,1,.26-.22,1.82,1.82,0,0,1,.31-.16,1.19,1.19,0,0,1,.32-.1,1.75,1.75,0,0,1,1.58.48,1.72,1.72,0,0,1,.51,1.24,2,2,0,0,1,0,.34,1.7,1.7,0,0,1-.1.32,1.82,1.82,0,0,1-.16.31,1.78,1.78,0,0,1-.22.26A1.74,1.74,0,0,1,782.81,366.26Z"/>
        <path d="M363.35,430.12a1.75,1.75,0,0,1-1.23-3,1.81,1.81,0,0,1,2.47,0,1.76,1.76,0,0,1,0,2.48A1.8,1.8,0,0,1,363.35,430.12Z"/>
        <path d="M370.24,418.1a1.75,1.75,0,0,1-.41-2.44h0a1.75,1.75,0,0,1,2.44-.41h0a1.76,1.76,0,0,1,.41,2.44h0a1.75,1.75,0,0,1-1.43.74h0A1.72,1.72,0,0,1,370.24,418.1Zm8.4-11.34a1.74,1.74,0,0,1-.29-2.45h0a1.75,1.75,0,0,1,2.46-.29h0a1.76,1.76,0,0,1,.29,2.46h0a1.78,1.78,0,0,1-1.38.66h0A1.7,1.7,0,0,1,378.64,406.76Zm8.95-10.9a1.74,1.74,0,0,1-.16-2.47h0a1.74,1.74,0,0,1,2.47-.16h0a1.75,1.75,0,0,1,.16,2.47h0a1.75,1.75,0,0,1-1.32.59h0A1.77,1.77,0,0,1,387.59,395.86Zm9.49-10.44a1.75,1.75,0,0,1,0-2.48h0a1.75,1.75,0,0,1,2.47,0h0a1.74,1.74,0,0,1,0,2.47h0a1.72,1.72,0,0,1-1.25.54h0A1.79,1.79,0,0,1,397.08,385.42Zm10-10a1.75,1.75,0,0,1,.09-2.48h0a1.75,1.75,0,0,1,2.47.08h0a1.76,1.76,0,0,1-.08,2.48h0a1.78,1.78,0,0,1-1.2.47h0A1.78,1.78,0,0,1,407.07,375.46ZM417.55,366a1.75,1.75,0,0,1,.21-2.46h0a1.74,1.74,0,0,1,2.46.2h0a1.75,1.75,0,0,1-.2,2.47h0a1.73,1.73,0,0,1-1.13.41h0A1.75,1.75,0,0,1,417.55,366Zm10.94-8.91a1.75,1.75,0,0,1,.32-2.46h0a1.76,1.76,0,0,1,2.46.33h0a1.76,1.76,0,0,1-.33,2.46h0a1.75,1.75,0,0,1-1.06.35h0A1.73,1.73,0,0,1,428.49,357.09Zm11.36-8.36a1.75,1.75,0,0,1,.45-2.44h0a1.74,1.74,0,0,1,2.43.45h0a1.74,1.74,0,0,1-.45,2.43h0a1.77,1.77,0,0,1-1,.3h0A1.75,1.75,0,0,1,439.85,348.73Zm11.77-7.79a1.74,1.74,0,0,1,.57-2.41h0a1.75,1.75,0,0,1,2.4.57h0a1.75,1.75,0,0,1-.56,2.41h0a1.74,1.74,0,0,1-.92.26h0A1.73,1.73,0,0,1,451.62,340.94Zm12.14-7.19a1.74,1.74,0,0,1,.69-2.37h0a1.74,1.74,0,0,1,2.37.69h0a1.74,1.74,0,0,1-.68,2.37h0a1.74,1.74,0,0,1-.85.22h0A1.75,1.75,0,0,1,463.76,333.75Zm12.48-6.56a1.75,1.75,0,0,1,.81-2.34h0a1.74,1.74,0,0,1,2.34.81h0a1.74,1.74,0,0,1-.81,2.33h0a1.77,1.77,0,0,1-.77.18h0A1.76,1.76,0,0,1,476.24,327.19Zm12.8-5.94A1.75,1.75,0,0,1,490,319h0a1.74,1.74,0,0,1,2.29.92h0a1.75,1.75,0,0,1-.92,2.3h0a1.85,1.85,0,0,1-.69.14h0A1.75,1.75,0,0,1,489,321.25ZM502.12,316a1.75,1.75,0,0,1,1-2.24h0a1.75,1.75,0,0,1,2.25,1h0a1.75,1.75,0,0,1-1,2.25h0a1.81,1.81,0,0,1-.6.11h0A1.76,1.76,0,0,1,502.12,316Zm13.34-4.61a1.75,1.75,0,0,1,1.15-2.2h0a1.76,1.76,0,0,1,2.19,1.16h0a1.76,1.76,0,0,1-1.15,2.19h0a1.93,1.93,0,0,1-.52.08h0A1.74,1.74,0,0,1,515.46,311.36ZM529,307.42a1.75,1.75,0,0,1,1.26-2.13h0a1.75,1.75,0,0,1,2.13,1.26h0a1.75,1.75,0,0,1-1.26,2.13h0a1.58,1.58,0,0,1-.43.05h0A1.76,1.76,0,0,1,529,307.42Z"/>
        <path d="M544.49,305.56a1.76,1.76,0,0,1-1.23-.51,1.86,1.86,0,0,1-.22-.27,2.19,2.19,0,0,1-.16-.3,2.07,2.07,0,0,1-.1-.33,2,2,0,0,1,0-.34,1.87,1.87,0,0,1,0-.34,2.07,2.07,0,0,1,.1-.33,1.78,1.78,0,0,1,.38-.57,1.76,1.76,0,0,1,1.58-.48l.32.1.31.16a2.75,2.75,0,0,1,.26.22,1.78,1.78,0,0,1,.38.57,2.07,2.07,0,0,1,.1.33,1.87,1.87,0,0,1,0,.34,2,2,0,0,1,0,.34,2.07,2.07,0,0,1-.1.33,2.19,2.19,0,0,1-.16.3,1.86,1.86,0,0,1-.22.27,1.71,1.71,0,0,1-.26.21,1.3,1.3,0,0,1-.31.16,1.19,1.19,0,0,1-.32.1A1.39,1.39,0,0,1,544.49,305.56Z"/>
        <path d="M385.11,763.2a1.71,1.71,0,0,1-.67-.14,1.63,1.63,0,0,1-.57-.38,2.75,2.75,0,0,1-.22-.26c-.06-.1-.11-.2-.16-.3s-.07-.22-.1-.33a2,2,0,0,1,0-.34,1.8,1.8,0,0,1,.51-1.24,2,2,0,0,1,.27-.22,1.73,1.73,0,0,1,.3-.16,2.07,2.07,0,0,1,.33-.1,1.77,1.77,0,0,1,1.58.48,1.8,1.8,0,0,1,.51,1.24,2,2,0,0,1,0,.34c0,.11-.06.22-.1.33s-.1.2-.16.3a2.75,2.75,0,0,1-.22.26A1.75,1.75,0,0,1,385.11,763.2Z"/>
        <path d="M374.94,751.53a1.76,1.76,0,0,1,.34-2.46h0a1.75,1.75,0,0,1,2.45.34h0a1.74,1.74,0,0,1-.34,2.45h0a1.71,1.71,0,0,1-1.05.36h0A1.77,1.77,0,0,1,374.94,751.53Zm-8.26-11.47a1.75,1.75,0,0,1,.45-2.44h0a1.75,1.75,0,0,1,2.43.46h0a1.74,1.74,0,0,1-.45,2.43h0a1.73,1.73,0,0,1-1,.31h0A1.75,1.75,0,0,1,366.68,740.06ZM359,728.19a1.75,1.75,0,0,1,.58-2.41h0a1.75,1.75,0,0,1,2.4.58h0a1.75,1.75,0,0,1-.57,2.41h0a1.81,1.81,0,0,1-.92.26h0A1.74,1.74,0,0,1,359,728.19ZM351.9,716h0a1.76,1.76,0,0,1,.7-2.38h0a1.76,1.76,0,0,1,2.38.7h0a1.74,1.74,0,0,1-.69,2.37h0a1.73,1.73,0,0,1-.84.22h0A1.76,1.76,0,0,1,351.9,716Zm-6.46-12.58h0a1.75,1.75,0,0,1,.81-2.34h0a1.75,1.75,0,0,1,2.34.81h0a1.76,1.76,0,0,1-.82,2.34h0a1.69,1.69,0,0,1-.76.17h0A1.73,1.73,0,0,1,345.44,703.38Zm-5.83-12.87h0a1.74,1.74,0,0,1,.93-2.29h0a1.75,1.75,0,0,1,2.29.93h0a1.76,1.76,0,0,1-.93,2.3h0a1.79,1.79,0,0,1-.68.13h0A1.75,1.75,0,0,1,339.61,690.51Zm-5.18-13.16a1.75,1.75,0,0,1,1.05-2.24h0a1.75,1.75,0,0,1,2.24,1h0a1.76,1.76,0,0,1-1,2.25h0a1.86,1.86,0,0,1-.61.1h0A1.75,1.75,0,0,1,334.43,677.35ZM329.92,664h0a1.75,1.75,0,0,1,1.16-2.18h0a1.75,1.75,0,0,1,2.19,1.15h0a1.76,1.76,0,0,1-1.16,2.19h0a1.88,1.88,0,0,1-.52.08h0A1.76,1.76,0,0,1,329.92,664Zm-3.83-13.6a1.75,1.75,0,0,1,1.27-2.13h0a1.75,1.75,0,0,1,2.12,1.26h0a1.75,1.75,0,0,1-1.26,2.13h0a1.65,1.65,0,0,1-.43.06h0A1.75,1.75,0,0,1,326.09,650.35ZM323,636.57a1.75,1.75,0,0,1,1.37-2.06h0a1.75,1.75,0,0,1,2.06,1.37h0a1.75,1.75,0,0,1-1.37,2.06h0a2.07,2.07,0,0,1-.35,0h0A1.75,1.75,0,0,1,323,636.57Zm-2.45-13.92a1.74,1.74,0,0,1,1.47-2h0a1.76,1.76,0,0,1,2,1.47h0a1.74,1.74,0,0,1-1.47,2h0l-.26,0h0A1.75,1.75,0,0,1,320.5,622.65Zm-1.75-14a1.74,1.74,0,0,1,1.56-1.92h0a1.75,1.75,0,0,1,1.92,1.57h0a1.76,1.76,0,0,1-1.57,1.92h-.17A1.75,1.75,0,0,1,318.75,608.63Zm-1.06-14.09a1.75,1.75,0,0,1,1.66-1.84h0a1.75,1.75,0,0,1,1.84,1.66h0a1.75,1.75,0,0,1-1.66,1.84h-.09A1.75,1.75,0,0,1,317.69,594.54Zm-.36-14.14a1.75,1.75,0,0,1,1.75-1.75h0a1.75,1.75,0,0,1,1.75,1.75h0a1.75,1.75,0,0,1-1.75,1.75h0A1.75,1.75,0,0,1,317.33,580.4Zm2-12.3a1.76,1.76,0,0,1-1.67-1.83h0a1.76,1.76,0,0,1,1.83-1.67h0a1.76,1.76,0,0,1,1.67,1.84h0a1.75,1.75,0,0,1-1.75,1.66h-.08Zm.93-14a1.76,1.76,0,0,1-1.57-1.92h0a1.76,1.76,0,0,1,1.91-1.57h0a1.75,1.75,0,0,1,1.57,1.91h0a1.75,1.75,0,0,1-1.74,1.58h-.17Zm1.63-14a1.75,1.75,0,0,1-1.47-2h0a1.75,1.75,0,0,1,2-1.48h0a1.76,1.76,0,0,1,1.47,2h0a1.75,1.75,0,0,1-1.73,1.5h0Zm2.33-13.87a1.74,1.74,0,0,1-1.38-2h0a1.75,1.75,0,0,1,2.06-1.38h0a1.75,1.75,0,0,1,1.37,2.06h0a1.74,1.74,0,0,1-1.71,1.41h0A1.32,1.32,0,0,1,324.22,526.25Zm3-13.72A1.75,1.75,0,0,1,326,510.4h0a1.75,1.75,0,0,1,2.12-1.27h0a1.75,1.75,0,0,1,1.27,2.13h0a1.75,1.75,0,0,1-1.69,1.32h0A2.1,2.1,0,0,1,327.23,512.53Zm3.7-13.56a1.75,1.75,0,0,1-1.16-2.19h0a1.75,1.75,0,0,1,2.18-1.16h0a1.74,1.74,0,0,1,1.16,2.19h0a1.75,1.75,0,0,1-1.67,1.24h0A1.81,1.81,0,0,1,330.93,499Zm4.37-13.36a1.75,1.75,0,0,1-1.05-2.24h0a1.75,1.75,0,0,1,2.24-1.05h0a1.75,1.75,0,0,1,1.05,2.24h0a1.75,1.75,0,0,1-1.64,1.16h0A1.81,1.81,0,0,1,335.3,485.61Z"/>
        <path d="M341.06,472.55a1.67,1.67,0,0,1-.68-.13l-.3-.16a2.75,2.75,0,0,1-.26-.22,1.78,1.78,0,0,1-.38-.57,1.39,1.39,0,0,1-.1-.33,1.27,1.27,0,0,1,0-.34,1.32,1.32,0,0,1,0-.34,1.39,1.39,0,0,1,.1-.33,1.73,1.73,0,0,1,.16-.3,1.86,1.86,0,0,1,.22-.27,1.82,1.82,0,0,1,2.47,0,2.88,2.88,0,0,1,.22.27,1.73,1.73,0,0,1,.16.3,2.07,2.07,0,0,1,.1.33,2,2,0,0,1,0,.34,1.87,1.87,0,0,1,0,.34,2.07,2.07,0,0,1-.1.33,1.43,1.43,0,0,1-.16.3,2,2,0,0,1-.22.27A1.75,1.75,0,0,1,341.06,472.55Z"/>
        <path d="M740.43,827.05a2,2,0,0,1-.34,0,2.07,2.07,0,0,1-.33-.1,2.19,2.19,0,0,1-.3-.16,1.78,1.78,0,0,1-.26-.22,1.73,1.73,0,0,1-.52-1.23,1.34,1.34,0,0,1,0-.35,1.39,1.39,0,0,1,.1-.33,1.46,1.46,0,0,1,.16-.3,2.05,2.05,0,0,1,.48-.48,2.19,2.19,0,0,1,.3-.16,1.39,1.39,0,0,1,.33-.1,1.56,1.56,0,0,1,.68,0,1.15,1.15,0,0,1,.33.1,1.78,1.78,0,0,1,.57.38,2.75,2.75,0,0,1,.22.26,2.19,2.19,0,0,1,.16.3,1.93,1.93,0,0,1,.14.68,1.74,1.74,0,0,1-.52,1.23,1.59,1.59,0,0,1-.57.38A1.67,1.67,0,0,1,740.43,827.05Z"/>
        <path d="M595.64,863.8a1.75,1.75,0,0,1-1.71-1.79h0a1.75,1.75,0,0,1,1.78-1.71h0a1.75,1.75,0,0,1,1.72,1.78h0a1.76,1.76,0,0,1-1.75,1.72h0ZM607.69,862a1.74,1.74,0,0,1,1.69-1.8h0a1.75,1.75,0,0,1,1.8,1.7h0a1.75,1.75,0,0,1-1.69,1.8h0A1.74,1.74,0,0,1,607.69,862Zm-25.86,1.18a1.75,1.75,0,0,1-1.63-1.87h0a1.75,1.75,0,0,1,1.86-1.63h0a1.76,1.76,0,0,1,1.63,1.87h0a1.75,1.75,0,0,1-1.75,1.63h-.11Zm39.57-1.83A1.76,1.76,0,0,1,623,859.5h0a1.75,1.75,0,0,1,1.88,1.61h0a1.76,1.76,0,0,1-1.61,1.88h-.14A1.77,1.77,0,0,1,621.4,861.38Zm-53.35.57a1.74,1.74,0,0,1-1.53-1.94h0a1.74,1.74,0,0,1,1.93-1.54h0a1.75,1.75,0,0,1,1.54,1.94h0a1.75,1.75,0,0,1-1.74,1.55h-.2Zm67-1.88a1.75,1.75,0,0,1,1.52-2h0a1.73,1.73,0,0,1,1.95,1.51h0a1.75,1.75,0,0,1-1.51,2h-.23A1.74,1.74,0,0,1,635.08,860.07ZM554.35,860a1.76,1.76,0,0,1-1.44-2h0a1.75,1.75,0,0,1,2-1.44h0a1.75,1.75,0,0,1,1.44,2h0a1.75,1.75,0,0,1-1.73,1.46h0A1.46,1.46,0,0,1,554.35,860Zm94.33-1.92a1.75,1.75,0,0,1,1.42-2h0a1.75,1.75,0,0,1,2,1.42h0a1.75,1.75,0,0,1-1.42,2h0l-.3,0h0A1.74,1.74,0,0,1,648.68,858.1Zm-107.91-.67a1.75,1.75,0,0,1-1.34-2.08h0a1.74,1.74,0,0,1,2.08-1.34h0a1.75,1.75,0,0,1,1.34,2.08h0a1.75,1.75,0,0,1-1.71,1.38h0A2.33,2.33,0,0,1,540.77,857.43Zm121.39-2a1.74,1.74,0,0,1,1.32-2.1h0a1.75,1.75,0,0,1,2.09,1.32h0a1.77,1.77,0,0,1-1.32,2.1h0a1.72,1.72,0,0,1-.39,0h0A1.74,1.74,0,0,1,662.16,855.47Zm-134.84-1.3h0a1.74,1.74,0,0,1-1.24-2.14h0a1.74,1.74,0,0,1,2.14-1.24h0a1.74,1.74,0,0,1,1.24,2.14h0a1.75,1.75,0,0,1-1.69,1.3h0A1.88,1.88,0,0,1,527.32,854.17Zm148.18-2a1.74,1.74,0,0,1,1.21-2.15h0a1.75,1.75,0,0,1,2.16,1.21h0a1.76,1.76,0,0,1-1.22,2.16h0a1.91,1.91,0,0,1-.47.07h0A1.75,1.75,0,0,1,675.5,852.17Zm-161.44-1.91a1.75,1.75,0,0,1-1.13-2.2h0a1.75,1.75,0,0,1,2.2-1.14h0a1.76,1.76,0,0,1,1.13,2.21h0a1.74,1.74,0,0,1-1.66,1.21h0A2,2,0,0,1,514.06,850.26Zm174.6-2a1.74,1.74,0,0,1,1.11-2.21h0a1.75,1.75,0,0,1,2.21,1.11h0a1.75,1.75,0,0,1-1.11,2.21h0a1.76,1.76,0,0,1-.55.09h0A1.74,1.74,0,0,1,688.66,848.23ZM501,845.7a1.76,1.76,0,0,1-1-2.26h0a1.76,1.76,0,0,1,2.26-1h0a1.76,1.76,0,0,1,1,2.26h0a1.76,1.76,0,0,1-1.64,1.13h0A2,2,0,0,1,501,845.7Zm200.61-2.05a1.76,1.76,0,0,1,1-2.27h0a1.76,1.76,0,0,1,2.27,1h0a1.76,1.76,0,0,1-1,2.27h0a1.77,1.77,0,0,1-.64.12h0A1.76,1.76,0,0,1,701.61,843.65Zm-213.43-3.14h0a1.77,1.77,0,0,1-.92-2.31h0a1.77,1.77,0,0,1,2.31-.91h0a1.77,1.77,0,0,1,.91,2.31h0a1.76,1.76,0,0,1-1.61,1h0A1.94,1.94,0,0,1,488.18,840.51Zm226.14-2.07a1.77,1.77,0,0,1,.89-2.32h0a1.75,1.75,0,0,1,2.31.89h0a1.75,1.75,0,0,1-.88,2.31h0a1.86,1.86,0,0,1-.72.15h0A1.75,1.75,0,0,1,714.32,838.44Zm-238.68-3.75a1.75,1.75,0,0,1-.8-2.35h0a1.75,1.75,0,0,1,2.34-.79h0a1.75,1.75,0,0,1,.8,2.34h0a1.76,1.76,0,0,1-1.57,1h0A1.74,1.74,0,0,1,475.64,834.69Zm251.13-2.08a1.76,1.76,0,0,1,.77-2.36h0a1.74,1.74,0,0,1,2.35.76h0a1.76,1.76,0,0,1-.77,2.36h0a1.84,1.84,0,0,1-.79.19h0A1.76,1.76,0,0,1,726.77,832.61Zm-263.38-4.34a1.75,1.75,0,0,1-.68-2.38h0a1.74,1.74,0,0,1,2.38-.68h0a1.75,1.75,0,0,1,.68,2.38h0a1.77,1.77,0,0,1-1.54.9h0A1.85,1.85,0,0,1,463.39,828.27Zm-11.92-7a1.75,1.75,0,0,1-.56-2.41h0a1.75,1.75,0,0,1,2.41-.56h0a1.75,1.75,0,0,1,.56,2.41h0a1.76,1.76,0,0,1-1.49.83h0A1.75,1.75,0,0,1,451.47,821.25Zm-11.57-7.58a1.76,1.76,0,0,1-.44-2.44h0a1.76,1.76,0,0,1,2.44-.44h0a1.75,1.75,0,0,1,.44,2.43h0a1.76,1.76,0,0,1-1.44.76h0A1.78,1.78,0,0,1,439.9,813.67Zm-11.17-8.14h0a1.75,1.75,0,0,1-.33-2.46h0a1.76,1.76,0,0,1,2.46-.32h0a1.75,1.75,0,0,1,.33,2.46h0a1.77,1.77,0,0,1-1.39.68h0A1.74,1.74,0,0,1,428.73,805.53Z"/>
        <path d="M419.07,797.26a1.7,1.7,0,0,1-1.23-.51,1.47,1.47,0,0,1-.38-.57,1.67,1.67,0,0,1-.14-.67,1.76,1.76,0,0,1,2.09-1.71,1.15,1.15,0,0,1,.33.1,1.78,1.78,0,0,1,.57.38,2.75,2.75,0,0,1,.22.26,2.19,2.19,0,0,1,.16.3,2.07,2.07,0,0,1,.1.33,2,2,0,0,1,0,.34,1.74,1.74,0,0,1-.51,1.24A1.74,1.74,0,0,1,419.07,797.26Z"/>
        <path d="M882.59,598a1.76,1.76,0,0,1-1.23-.51,1.13,1.13,0,0,1-.22-.27,1.08,1.08,0,0,1-.16-.3,1.15,1.15,0,0,1-.1-.33,1.27,1.27,0,0,1,0-.34,1.77,1.77,0,0,1,.52-1.24,1.74,1.74,0,0,1,1.57-.47,1.15,1.15,0,0,1,.33.1,1.08,1.08,0,0,1,.3.16,1.39,1.39,0,0,1,.27.21,1.8,1.8,0,0,1,.51,1.24,1.78,1.78,0,0,1-.51,1.24,2,2,0,0,1-.27.22,2.11,2.11,0,0,1-.3.16l-.33.1A1.87,1.87,0,0,1,882.59,598Z"/>
        <path d="M789.41,790a1.74,1.74,0,0,1,.12-2.47h0a1.74,1.74,0,0,1,2.47.12h0a1.74,1.74,0,0,1-.12,2.47h0a1.74,1.74,0,0,1-1.17.45h0A1.75,1.75,0,0,1,789.41,790Zm10-9.38a1.75,1.75,0,0,1,0-2.47h0a1.76,1.76,0,0,1,2.48,0h0a1.76,1.76,0,0,1,0,2.48h0a1.75,1.75,0,0,1-1.24.51h0A1.77,1.77,0,0,1,799.36,780.6Zm9.49-9.85a1.74,1.74,0,0,1-.12-2.47h0a1.75,1.75,0,0,1,2.47-.12h0a1.74,1.74,0,0,1,.12,2.47h0a1.75,1.75,0,0,1-1.3.58h0A1.73,1.73,0,0,1,808.85,770.75Zm9-10.29a1.76,1.76,0,0,1-.24-2.46h0a1.74,1.74,0,0,1,2.46-.24h0a1.75,1.75,0,0,1,.25,2.46h0a1.76,1.76,0,0,1-1.36.64h0A1.74,1.74,0,0,1,817.85,760.46Zm8.5-10.72a1.74,1.74,0,0,1-.36-2.45h0a1.75,1.75,0,0,1,2.45-.35h0a1.75,1.75,0,0,1,.36,2.44h0a1.75,1.75,0,0,1-1.41.71h0A1.69,1.69,0,0,1,826.35,749.74Zm8-11.11a1.74,1.74,0,0,1-.48-2.43h0a1.75,1.75,0,0,1,2.43-.47h0a1.74,1.74,0,0,1,.47,2.42h0a1.74,1.74,0,0,1-1.45.78h0A1.71,1.71,0,0,1,834.32,738.63Zm7.41-11.48a1.76,1.76,0,0,1-.59-2.41h0a1.74,1.74,0,0,1,2.4-.59h0a1.75,1.75,0,0,1,.6,2.4h0a1.75,1.75,0,0,1-1.5.85h0A1.79,1.79,0,0,1,841.73,727.15Zm6.86-11.84a1.75,1.75,0,0,1-.71-2.37h0a1.75,1.75,0,0,1,2.37-.71h0a1.75,1.75,0,0,1,.71,2.37h0a1.75,1.75,0,0,1-1.54.92h0A1.65,1.65,0,0,1,848.59,715.31Zm6.27-12.15a1.74,1.74,0,0,1-.82-2.33h0a1.74,1.74,0,0,1,2.33-.82h0a1.74,1.74,0,0,1,.82,2.33h0a1.73,1.73,0,0,1-1.57,1h0A1.72,1.72,0,0,1,854.86,703.16Zm5.67-12.44a1.74,1.74,0,0,1-.93-2.29h0a1.75,1.75,0,0,1,2.29-.94h0a1.76,1.76,0,0,1,.94,2.29h0a1.75,1.75,0,0,1-1.61,1.08h0A1.8,1.8,0,0,1,860.53,690.72Zm5.06-12.7a1.74,1.74,0,0,1-1-2.25h0a1.74,1.74,0,0,1,2.24-1h0a1.75,1.75,0,0,1,1.05,2.24h0a1.74,1.74,0,0,1-1.64,1.15h0A1.8,1.8,0,0,1,865.59,678ZM870,665.08a1.74,1.74,0,0,1-1.16-2.19h0a1.75,1.75,0,0,1,2.19-1.15h0a1.74,1.74,0,0,1,1.15,2.19h0a1.76,1.76,0,0,1-1.68,1.24h0A1.81,1.81,0,0,1,870,665.08Zm3.79-13.14a1.75,1.75,0,0,1-1.26-2.13h0a1.75,1.75,0,0,1,2.13-1.26h0a1.75,1.75,0,0,1,1.26,2.13h0a1.75,1.75,0,0,1-1.69,1.32h0A1.67,1.67,0,0,1,873.82,651.94Zm3.15-13.3a1.75,1.75,0,0,1-1.36-2.07h0a1.74,1.74,0,0,1,2.06-1.36h0a1.75,1.75,0,0,1,1.37,2.06h0a1.75,1.75,0,0,1-1.72,1.4h0Zm2.5-13.45a1.75,1.75,0,0,1-1.47-2h0a1.76,1.76,0,0,1,2-1.47h0a1.75,1.75,0,0,1,1.46,2h0a1.73,1.73,0,0,1-1.72,1.48h0A1.23,1.23,0,0,1,879.47,625.19Zm1.84-13.54a1.77,1.77,0,0,1-1.56-1.93h0a1.75,1.75,0,0,1,1.92-1.56h0a1.76,1.76,0,0,1,1.56,1.93h0a1.74,1.74,0,0,1-1.74,1.56h-.18Z"/>
        <path d="M780.35,799.52a1.7,1.7,0,0,1-.67-.13,2,2,0,0,1-.57-.38,1.74,1.74,0,0,1-.51-1.24,1.32,1.32,0,0,1,0-.34,2,2,0,0,1,.09-.33,2.28,2.28,0,0,1,.17-.3,1.71,1.71,0,0,1,.21-.26,1.13,1.13,0,0,1,.27-.22,1.46,1.46,0,0,1,.3-.16,1.39,1.39,0,0,1,.33-.1,1.56,1.56,0,0,1,.68,0,1.39,1.39,0,0,1,.33.1,1.08,1.08,0,0,1,.3.16,1.13,1.13,0,0,1,.27.22,2.75,2.75,0,0,1,.22.26c.06.1.11.2.16.3a2.07,2.07,0,0,1,.1.33,2,2,0,0,1,0,.34,1.74,1.74,0,0,1-1.75,1.75Z"/>
    </g>
</svg>
